<?xml version="1.0" standalone="no"?> 
<svg width="200pt" height= "250pt" version="1.1" xmlns="http://www.w3.org/2000/svg">
<circle cx="21.000000" cy="27.000000" r="0.1" stroke="black" fill="red" stroke-width="0.1"/> 
<circle cx="14.899051" cy="21.880695" r="0.1" stroke="black" fill="red" stroke-width="0.1"/> 
<circle cx="10.856688" cy="13.592620" r="0.1" stroke="black" fill="red" stroke-width="0.1"/> 
<circle cx="28.278271" cy="21.313593" r="0.1" stroke="black" fill="red" stroke-width="0.1"/> 
<circle cx="23.925323" cy="33.273380" r="0.1" stroke="black" fill="red" stroke-width="0.1"/> 
<circle cx="10.724363" cy="26.683126" r="0.1" stroke="black" fill="red" stroke-width="0.1"/> 
<circle cx="21.777237" cy="20.791300" r="0.1" stroke="black" fill="red" stroke-width="0.1"/> 
<circle cx="33.687263" cy="32.590759" r="0.1" stroke="black" fill="red" stroke-width="0.1"/> 
<circle cx="33.190323" cy="38.270817" r="0.1" stroke="black" fill="red" stroke-width="0.1"/> 
<circle cx="39.220928" cy="39.424263" r="0.1" stroke="black" fill="red" stroke-width="0.1"/> 
<circle cx="16.289709" cy="16.303074" r="0.1" stroke="black" fill="red" stroke-width="0.1"/> 
<circle cx="27.103231" cy="26.680143" r="0.1" stroke="black" fill="red" stroke-width="0.1"/> 
<circle cx="17.200150" cy="31.109900" r="0.1" stroke="black" fill="red" stroke-width="0.1"/> 
<circle cx="37.285820" cy="26.831867" r="0.1" stroke="black" fill="red" stroke-width="0.1"/> 
<circle cx="27.333868" cy="37.735641" r="0.1" stroke="black" fill="red" stroke-width="0.1"/> 
<circle cx="34.420418" cy="13.452005" r="0.1" stroke="black" fill="red" stroke-width="0.1"/> 
<circle cx="26.134075" cy="15.086399" r="0.1" stroke="black" fill="red" stroke-width="0.1"/> 
<circle cx="39.606136" cy="17.525589" r="0.1" stroke="black" fill="red" stroke-width="0.1"/> 
<circle cx="21.293335" cy="39.815559" r="0.1" stroke="black" fill="red" stroke-width="0.1"/> 
<circle cx="31.640697" cy="25.836479" r="0.1" stroke="black" fill="red" stroke-width="0.1"/> 
<circle cx="33.172585" cy="17.862759" r="0.1" stroke="black" fill="red" stroke-width="0.1"/> 
<circle cx="15.373075" cy="35.970901" r="0.1" stroke="black" fill="red" stroke-width="0.1"/> 
<circle cx="10.074106" cy="31.524538" r="0.1" stroke="black" fill="red" stroke-width="0.1"/> 
<circle cx="77.000000" cy="18.000000" r="0.1" stroke="black" fill="red" stroke-width="0.1"/> 
<circle cx="67.296570" cy="20.062527" r="0.1" stroke="black" fill="red" stroke-width="0.1"/> 
<circle cx="61.156376" cy="21.480103" r="0.1" stroke="black" fill="red" stroke-width="0.1"/> 
<circle cx="77.000000" cy="10.314888" r="0.1" stroke="black" fill="red" stroke-width="0.1"/> 
<circle cx="67.178566" cy="13.301998" r="0.1" stroke="black" fill="red" stroke-width="0.1"/> 
<circle cx="61.278877" cy="15.848894" r="0.1" stroke="black" fill="red" stroke-width="0.1"/> 
<circle cx="72.431305" cy="20.228302" r="0.1" stroke="black" fill="red" stroke-width="0.1"/> 
<circle cx="81.255859" cy="20.228302" r="0.1" stroke="black" fill="red" stroke-width="0.1"/> 
<circle cx="65.207474" cy="26.732664" r="0.1" stroke="black" fill="red" stroke-width="0.1"/> 
<circle cx="85.728683" cy="17.389631" r="0.1" stroke="black" fill="red" stroke-width="0.1"/> 
<circle cx="69.349037" cy="33.625374" r="0.1" stroke="black" fill="red" stroke-width="0.1"/> 
<circle cx="88.170486" cy="24.481146" r="0.1" stroke="black" fill="red" stroke-width="0.1"/> 
<circle cx="79.188370" cy="32.066978" r="0.1" stroke="black" fill="red" stroke-width="0.1"/> 
<circle cx="78.678650" cy="26.016811" r="0.1" stroke="black" fill="red" stroke-width="0.1"/> 
<circle cx="82.641235" cy="13.101152" r="0.1" stroke="black" fill="red" stroke-width="0.1"/> 
<circle cx="60.458675" cy="34.045177" r="0.1" stroke="black" fill="red" stroke-width="0.1"/> 
<circle cx="61.540802" cy="39.092758" r="0.1" stroke="black" fill="red" stroke-width="0.1"/> 
<circle cx="73.132164" cy="13.599504" r="0.1" stroke="black" fill="red" stroke-width="0.1"/> 
<circle cx="19.000000" cy="89.000000" r="0.1" stroke="black" fill="red" stroke-width="0.1"/> 
<circle cx="24.610466" cy="88.607681" r="0.1" stroke="black" fill="red" stroke-width="0.1"/> 
<circle cx="32.349445" cy="92.382233" r="0.1" stroke="black" fill="red" stroke-width="0.1"/> 
<circle cx="37.463306" cy="91.754326" r="0.1" stroke="black" fill="red" stroke-width="0.1"/> 
<circle cx="31.286749" cy="85.577774" r="0.1" stroke="black" fill="red" stroke-width="0.1"/> 
<circle cx="43.491318" cy="92.601509" r="0.1" stroke="black" fill="red" stroke-width="0.1"/> 
<circle cx="28.669571" cy="79.699493" r="0.1" stroke="black" fill="red" stroke-width="0.1"/> 
<circle cx="37.833366" cy="79.859451" r="0.1" stroke="black" fill="red" stroke-width="0.1"/> 
<circle cx="44.990265" cy="76.212822" r="0.1" stroke="black" fill="red" stroke-width="0.1"/> 
<circle cx="36.477112" cy="73.610092" r="0.1" stroke="black" fill="red" stroke-width="0.1"/> 
<circle cx="44.073776" cy="67.493004" r="0.1" stroke="black" fill="red" stroke-width="0.1"/> 
<circle cx="42.112324" cy="61.456272" r="0.1" stroke="black" fill="red" stroke-width="0.1"/> 
<circle cx="44.009583" cy="55.250610" r="0.1" stroke="black" fill="red" stroke-width="0.1"/> 
<circle cx="35.216644" cy="68.150421" r="0.1" stroke="black" fill="red" stroke-width="0.1"/> 
<circle cx="28.569689" cy="62.165470" r="0.1" stroke="black" fill="red" stroke-width="0.1"/> 
<circle cx="23.246925" cy="94.635864" r="0.1" stroke="black" fill="red" stroke-width="0.1"/> 
<circle cx="40.472256" cy="73.256645" r="0.1" stroke="black" fill="red" stroke-width="0.1"/> 
<circle cx="28.338427" cy="68.787987" r="0.1" stroke="black" fill="red" stroke-width="0.1"/> 
<circle cx="24.057177" cy="75.087097" r="0.1" stroke="black" fill="red" stroke-width="0.1"/> 
<circle cx="36.876415" cy="60.823654" r="0.1" stroke="black" fill="red" stroke-width="0.1"/> 
<circle cx="42.870865" cy="84.713272" r="0.1" stroke="black" fill="red" stroke-width="0.1"/> 
<circle cx="11.482008" cy="89.657745" r="0.1" stroke="black" fill="red" stroke-width="0.1"/> 
<circle cx="19.622410" cy="78.078392" r="0.1" stroke="black" fill="red" stroke-width="0.1"/> 
<circle cx="22.602016" cy="57.829704" r="0.1" stroke="black" fill="red" stroke-width="0.1"/> 
<circle cx="15.528622" cy="77.694542" r="0.1" stroke="black" fill="red" stroke-width="0.1"/> 
<circle cx="14.599682" cy="59.824913" r="0.1" stroke="black" fill="red" stroke-width="0.1"/> 
<circle cx="21.101034" cy="63.431450" r="0.1" stroke="black" fill="red" stroke-width="0.1"/> 
<circle cx="16.665035" cy="70.758636" r="0.1" stroke="black" fill="red" stroke-width="0.1"/> 
<circle cx="17.581448" cy="55.801262" r="0.1" stroke="black" fill="red" stroke-width="0.1"/> 
<circle cx="10.233288" cy="55.287430" r="0.1" stroke="black" fill="red" stroke-width="0.1"/> 
<circle cx="6.802575" cy="79.076614" r="0.1" stroke="black" fill="red" stroke-width="0.1"/> 
<circle cx="7.144928" cy="72.544144" r="0.1" stroke="black" fill="red" stroke-width="0.1"/> 
<circle cx="31.715256" cy="75.220772" r="0.1" stroke="black" fill="red" stroke-width="0.1"/> 
<circle cx="9.824137" cy="62.472038" r="0.1" stroke="black" fill="red" stroke-width="0.1"/> 
<circle cx="5.541849" cy="58.227772" r="0.1" stroke="black" fill="red" stroke-width="0.1"/> 
<circle cx="5.045221" cy="67.828125" r="0.1" stroke="black" fill="red" stroke-width="0.1"/> 
<circle cx="13.841258" cy="66.001785" r="0.1" stroke="black" fill="red" stroke-width="0.1"/> 
<circle cx="16.781048" cy="84.137711" r="0.1" stroke="black" fill="red" stroke-width="0.1"/> 
<circle cx="93.000000" cy="72.000000" r="0.1" stroke="black" fill="red" stroke-width="0.1"/> 
<circle cx="94.654610" cy="77.411980" r="0.1" stroke="black" fill="red" stroke-width="0.1"/> 
<circle cx="85.255272" cy="75.611427" r="0.1" stroke="black" fill="red" stroke-width="0.1"/> 
<circle cx="78.904900" cy="70.649971" r="0.1" stroke="black" fill="red" stroke-width="0.1"/> 
<circle cx="78.088135" cy="76.618706" r="0.1" stroke="black" fill="red" stroke-width="0.1"/> 
<circle cx="39.000000" cy="125.000000" r="0.1" stroke="black" fill="red" stroke-width="0.1"/> 
<circle cx="33.561184" cy="131.040421" r="0.1" stroke="black" fill="red" stroke-width="0.1"/> 
<circle cx="33.445168" cy="124.393715" r="0.1" stroke="black" fill="red" stroke-width="0.1"/> 
<circle cx="48.834106" cy="125.171654" r="0.1" stroke="black" fill="red" stroke-width="0.1"/> 
<circle cx="43.018166" cy="121.947830" r="0.1" stroke="black" fill="red" stroke-width="0.1"/> 
<circle cx="38.505627" cy="134.433228" r="0.1" stroke="black" fill="red" stroke-width="0.1"/> 
<circle cx="37.031757" cy="114.285576" r="0.1" stroke="black" fill="red" stroke-width="0.1"/> 
<circle cx="42.335228" cy="129.351166" r="0.1" stroke="black" fill="red" stroke-width="0.1"/> 
<circle cx="42.751251" cy="113.785179" r="0.1" stroke="black" fill="red" stroke-width="0.1"/> 
<circle cx="29.470064" cy="134.123291" r="0.1" stroke="black" fill="red" stroke-width="0.1"/> 
<circle cx="30.115499" cy="111.349800" r="0.1" stroke="black" fill="red" stroke-width="0.1"/> 
<circle cx="35.185699" cy="119.788025" r="0.1" stroke="black" fill="red" stroke-width="0.1"/> 
<circle cx="47.093559" cy="135.184570" r="0.1" stroke="black" fill="red" stroke-width="0.1"/> 
<circle cx="46.007225" cy="142.043411" r="0.1" stroke="black" fill="red" stroke-width="0.1"/> 
<circle cx="33.394096" cy="140.612915" r="0.1" stroke="black" fill="red" stroke-width="0.1"/> 
<circle cx="30.954393" cy="119.033730" r="0.1" stroke="black" fill="red" stroke-width="0.1"/> 
<circle cx="21.191738" cy="130.263046" r="0.1" stroke="black" fill="red" stroke-width="0.1"/> 
<circle cx="40.274345" cy="138.810410" r="0.1" stroke="black" fill="red" stroke-width="0.1"/> 
<circle cx="41.391876" cy="145.148224" r="0.1" stroke="black" fill="red" stroke-width="0.1"/> 
<circle cx="25.564053" cy="120.478073" r="0.1" stroke="black" fill="red" stroke-width="0.1"/> 
<circle cx="35.871376" cy="148.733276" r="0.1" stroke="black" fill="red" stroke-width="0.1"/> 
<circle cx="28.393627" cy="126.031418" r="0.1" stroke="black" fill="red" stroke-width="0.1"/> 
<circle cx="42.611664" cy="149.680573" r="0.1" stroke="black" fill="red" stroke-width="0.1"/> 
<circle cx="49.261524" cy="117.246758" r="0.1" stroke="black" fill="red" stroke-width="0.1"/> 
<circle cx="31.080530" cy="145.252533" r="0.1" stroke="black" fill="red" stroke-width="0.1"/> 
<circle cx="25.175297" cy="144.631866" r="0.1" stroke="black" fill="red" stroke-width="0.1"/> 
<circle cx="24.276625" cy="139.692581" r="0.1" stroke="black" fill="red" stroke-width="0.1"/> 
<circle cx="18.402992" cy="145.364685" r="0.1" stroke="black" fill="red" stroke-width="0.1"/> 
<circle cx="22.512962" cy="149.247650" r="0.1" stroke="black" fill="red" stroke-width="0.1"/> 
<circle cx="18.819609" cy="137.415192" r="0.1" stroke="black" fill="red" stroke-width="0.1"/> 
<circle cx="30.841356" cy="149.976288" r="0.1" stroke="black" fill="red" stroke-width="0.1"/> 
<circle cx="24.072954" cy="134.500702" r="0.1" stroke="black" fill="red" stroke-width="0.1"/> 
<circle cx="16.830021" cy="117.125389" r="0.1" stroke="black" fill="red" stroke-width="0.1"/> 
<circle cx="10.500711" cy="124.154800" r="0.1" stroke="black" fill="red" stroke-width="0.1"/> 
<circle cx="49.578560" cy="111.197388" r="0.1" stroke="black" fill="red" stroke-width="0.1"/> 
<circle cx="14.738396" cy="134.450012" r="0.1" stroke="black" fill="red" stroke-width="0.1"/> 
<circle cx="13.102351" cy="139.485245" r="0.1" stroke="black" fill="red" stroke-width="0.1"/> 
<circle cx="21.836784" cy="114.574318" r="0.1" stroke="black" fill="red" stroke-width="0.1"/> 
<circle cx="11.802688" cy="147.690994" r="0.1" stroke="black" fill="red" stroke-width="0.1"/> 
<circle cx="13.372655" cy="113.233734" r="0.1" stroke="black" fill="red" stroke-width="0.1"/> 
<circle cx="19.945711" cy="123.989937" r="0.1" stroke="black" fill="red" stroke-width="0.1"/> 
<circle cx="11.805872" cy="118.501541" r="0.1" stroke="black" fill="red" stroke-width="0.1"/> 
<circle cx="11.020473" cy="130.095703" r="0.1" stroke="black" fill="red" stroke-width="0.1"/> 
<circle cx="99.000000" cy="134.000000" r="0.1" stroke="black" fill="red" stroke-width="0.1"/> 
<circle cx="94.471581" cy="140.467255" r="0.1" stroke="black" fill="red" stroke-width="0.1"/> 
<circle cx="93.412888" cy="128.214371" r="0.1" stroke="black" fill="red" stroke-width="0.1"/> 
<circle cx="98.574608" cy="124.034492" r="0.1" stroke="black" fill="red" stroke-width="0.1"/> 
<circle cx="87.090584" cy="144.902206" r="0.1" stroke="black" fill="red" stroke-width="0.1"/> 
<circle cx="86.371819" cy="139.787964" r="0.1" stroke="black" fill="red" stroke-width="0.1"/> 
<circle cx="80.577248" cy="142.002289" r="0.1" stroke="black" fill="red" stroke-width="0.1"/> 
<circle cx="85.295677" cy="129.500015" r="0.1" stroke="black" fill="red" stroke-width="0.1"/> 
<circle cx="92.568588" cy="134.208359" r="0.1" stroke="black" fill="red" stroke-width="0.1"/> 
<circle cx="93.214630" cy="118.286621" r="0.1" stroke="black" fill="red" stroke-width="0.1"/> 
<circle cx="87.141068" cy="122.539383" r="0.1" stroke="black" fill="red" stroke-width="0.1"/> 
<circle cx="78.340805" cy="136.466888" r="0.1" stroke="black" fill="red" stroke-width="0.1"/> 
<circle cx="84.087570" cy="116.796585" r="0.1" stroke="black" fill="red" stroke-width="0.1"/> 
<circle cx="80.406281" cy="131.779968" r="0.1" stroke="black" fill="red" stroke-width="0.1"/> 
<circle cx="82.110909" cy="148.654663" r="0.1" stroke="black" fill="red" stroke-width="0.1"/> 
<circle cx="96.579620" cy="145.201981" r="0.1" stroke="black" fill="red" stroke-width="0.1"/> 
<circle cx="91.342178" cy="147.558899" r="0.1" stroke="black" fill="red" stroke-width="0.1"/> 
<circle cx="96.088898" cy="112.880928" r="0.1" stroke="black" fill="red" stroke-width="0.1"/> 
<circle cx="81.654678" cy="123.897903" r="0.1" stroke="black" fill="red" stroke-width="0.1"/> 
<circle cx="75.362961" cy="145.928314" r="0.1" stroke="black" fill="red" stroke-width="0.1"/> 
<circle cx="75.817123" cy="125.225967" r="0.1" stroke="black" fill="red" stroke-width="0.1"/> 
<circle cx="69.858437" cy="139.596069" r="0.1" stroke="black" fill="red" stroke-width="0.1"/> 
<circle cx="68.107239" cy="145.293518" r="0.1" stroke="black" fill="red" stroke-width="0.1"/> 
<circle cx="72.949219" cy="119.075729" r="0.1" stroke="black" fill="red" stroke-width="0.1"/> 
<circle cx="89.411095" cy="114.536880" r="0.1" stroke="black" fill="red" stroke-width="0.1"/> 
<circle cx="65.446381" cy="122.898613" r="0.1" stroke="black" fill="red" stroke-width="0.1"/> 
<circle cx="71.357552" cy="133.583450" r="0.1" stroke="black" fill="red" stroke-width="0.1"/> 
<circle cx="62.797356" cy="117.217758" r="0.1" stroke="black" fill="red" stroke-width="0.1"/> 
<circle cx="71.544128" cy="127.947128" r="0.1" stroke="black" fill="red" stroke-width="0.1"/> 
<circle cx="64.430817" cy="136.334824" r="0.1" stroke="black" fill="red" stroke-width="0.1"/> 
<circle cx="67.557800" cy="116.561668" r="0.1" stroke="black" fill="red" stroke-width="0.1"/> 
<circle cx="73.938957" cy="113.853027" r="0.1" stroke="black" fill="red" stroke-width="0.1"/> 
<circle cx="77.690948" cy="111.774101" r="0.1" stroke="black" fill="red" stroke-width="0.1"/> 
<circle cx="65.182388" cy="130.458527" r="0.1" stroke="black" fill="red" stroke-width="0.1"/> 
<circle cx="33.000000" cy="187.000000" r="0.1" stroke="black" fill="red" stroke-width="0.1"/> 
<circle cx="41.624950" cy="189.473160" r="0.1" stroke="black" fill="red" stroke-width="0.1"/> 
<circle cx="31.967997" cy="196.818863" r="0.1" stroke="black" fill="red" stroke-width="0.1"/> 
<circle cx="40.451920" cy="197.412109" r="0.1" stroke="black" fill="red" stroke-width="0.1"/> 
<circle cx="48.297043" cy="195.744583" r="0.1" stroke="black" fill="red" stroke-width="0.1"/> 
<circle cx="32.739719" cy="179.546585" r="0.1" stroke="black" fill="red" stroke-width="0.1"/> 
<circle cx="45.315567" cy="200.334488" r="0.1" stroke="black" fill="red" stroke-width="0.1"/> 
<circle cx="53.990921" cy="195.721725" r="0.1" stroke="black" fill="red" stroke-width="0.1"/> 
<circle cx="48.905937" cy="190.268738" r="0.1" stroke="black" fill="red" stroke-width="0.1"/> 
<circle cx="42.188755" cy="184.537872" r="0.1" stroke="black" fill="red" stroke-width="0.1"/> 
<circle cx="46.112114" cy="181.360809" r="0.1" stroke="black" fill="red" stroke-width="0.1"/> 
<circle cx="53.176811" cy="181.607513" r="0.1" stroke="black" fill="red" stroke-width="0.1"/> 
<circle cx="55.777695" cy="190.309570" r="0.1" stroke="black" fill="red" stroke-width="0.1"/> 
<circle cx="61.332764" cy="199.960541" r="0.1" stroke="black" fill="red" stroke-width="0.1"/> 
<circle cx="41.388397" cy="203.748322" r="0.1" stroke="black" fill="red" stroke-width="0.1"/> 
<circle cx="60.484261" cy="182.764893" r="0.1" stroke="black" fill="red" stroke-width="0.1"/> 
<circle cx="69.829865" cy="181.117004" r="0.1" stroke="black" fill="red" stroke-width="0.1"/> 
<circle cx="58.488022" cy="173.373352" r="0.1" stroke="black" fill="red" stroke-width="0.1"/> 
<circle cx="30.177349" cy="172.104919" r="0.1" stroke="black" fill="red" stroke-width="0.1"/> 
<circle cx="61.519829" cy="191.635239" r="0.1" stroke="black" fill="red" stroke-width="0.1"/> 
<circle cx="50.402832" cy="201.530182" r="0.1" stroke="black" fill="red" stroke-width="0.1"/> 
<circle cx="69.813522" cy="194.330032" r="0.1" stroke="black" fill="red" stroke-width="0.1"/> 
<circle cx="67.462082" cy="199.531937" r="0.1" stroke="black" fill="red" stroke-width="0.1"/> 
<circle cx="62.439735" cy="177.924927" r="0.1" stroke="black" fill="red" stroke-width="0.1"/> 
<circle cx="39.007187" cy="179.850601" r="0.1" stroke="black" fill="red" stroke-width="0.1"/> 
<circle cx="51.915779" cy="174.455841" r="0.1" stroke="black" fill="red" stroke-width="0.1"/> 
<circle cx="37.016918" cy="191.461243" r="0.1" stroke="black" fill="red" stroke-width="0.1"/> 
<circle cx="48.499138" cy="165.068695" r="0.1" stroke="black" fill="red" stroke-width="0.1"/> 
<circle cx="42.890594" cy="172.509750" r="0.1" stroke="black" fill="red" stroke-width="0.1"/> 
<circle cx="35.257065" cy="170.606506" r="0.1" stroke="black" fill="red" stroke-width="0.1"/> 
<circle cx="55.657227" cy="166.460083" r="0.1" stroke="black" fill="red" stroke-width="0.1"/> 
<circle cx="61.427650" cy="161.787292" r="0.1" stroke="black" fill="red" stroke-width="0.1"/> 
<circle cx="39.594910" cy="166.417496" r="0.1" stroke="black" fill="red" stroke-width="0.1"/> 
<circle cx="60.858013" cy="168.298279" r="0.1" stroke="black" fill="red" stroke-width="0.1"/> 
<circle cx="33.883358" cy="164.561691" r="0.1" stroke="black" fill="red" stroke-width="0.1"/> 
<circle cx="67.353394" cy="165.208511" r="0.1" stroke="black" fill="red" stroke-width="0.1"/> 
<circle cx="55.483257" cy="160.082764" r="0.1" stroke="black" fill="red" stroke-width="0.1"/> 
<circle cx="66.345512" cy="172.379959" r="0.1" stroke="black" fill="red" stroke-width="0.1"/> 
<circle cx="43.220688" cy="161.940033" r="0.1" stroke="black" fill="red" stroke-width="0.1"/> 
</svg>
