<?xml version="1.0" standalone="no"?> 
<svg width="150pt" height= "150pt" version="1.1" xmlns="http://www.w3.org/2000/svg">
<style type = "text/css">
.st1{fill:#ff0000;stroke:#000000;stroke-miterlimit:5.000000;}
.st2{fill:#ff0000;stroke:#000000;stroke-miterlimit:5.000000;}
.st3{fill:#008000;stroke:#008000;stroke-miterlimit:5.000000;}
.st4{fill:#0000ff;stroke:#0000ff;stroke-miterlimit:5.000000;}
</style> 
<path class="st1" d = "M 10.000000,10.000000 C 16.666666,10.000000,23.333334,10.000000,30.000000,10.000000 C 30.000000,16.666666,30.000000,23.333334,30.000000,30.000000 C 23.333334,30.000000,16.666666,30.000000,10.000000,30.000000 C 10.000000,23.333334,10.000000,16.666666,10.000000,10.000000z"/> 
<path class="st2" d = "M 164.000000,-710.000000 C 164.000000,-710.000000,164.000000,-710.000000,164.000000,-710.000000 C 169.522858,-710.000000,174.000000,-705.522827,174.000000,-700.000000 C 174.000000,-700.000000,174.000000,-700.000000,174.000000,-700.000000 C 174.000000,-694.477173,169.522858,-690.000000,164.000000,-690.000000 C 164.000000,-690.000000,164.000000,-690.000000,164.000000,-690.000000 C 158.477142,-690.000000,154.000000,-694.477173,154.000000,-700.000000 C 154.000000,-700.000000,154.000000,-700.000000,154.000000,-700.000000 C 154.000000,-705.522827,158.477142,-710.000000,164.000000,-710.000000 C 164.000000,-710.000000,164.000000,-710.000000,164.000000,-710.000000z"/> 
<path class="st3" d = "M 55.000000,121.000000 C 55.000000,132.045685,46.045696,141.000000,35.000000,141.000000 C 23.954304,141.000000,15.000000,132.045685,15.000000,121.000000 C 15.000000,109.954300,23.954304,101.000000,35.000000,101.000000 C 46.045696,101.000000,55.000000,109.954300,55.000000,121.000000 C 55.000000,121.000000,55.000000,121.000000,55.000000,121.000000z"/> 
<path class="st2" d = "M 164.000000,-710.000000 C 164.000000,-710.000000,164.000000,-710.000000,164.000000,-710.000000 C 169.522858,-710.000000,174.000000,-705.522827,174.000000,-700.000000 C 174.000000,-700.000000,174.000000,-700.000000,174.000000,-700.000000 C 174.000000,-694.477173,169.522858,-690.000000,164.000000,-690.000000 C 164.000000,-690.000000,164.000000,-690.000000,164.000000,-690.000000 C 158.477142,-690.000000,154.000000,-694.477173,154.000000,-700.000000 C 154.000000,-700.000000,154.000000,-700.000000,154.000000,-700.000000 C 154.000000,-705.522827,158.477142,-710.000000,164.000000,-710.000000 C 164.000000,-710.000000,164.000000,-710.000000,164.000000,-710.000000z"/> 
<path class="st1" d = "M 10.000000,10.000000 C 16.666666,10.000000,23.333334,10.000000,30.000000,10.000000 C 30.000000,16.666666,30.000000,23.333334,30.000000,30.000000 C 23.333334,30.000000,16.666666,30.000000,10.000000,30.000000 C 10.000000,23.333334,10.000000,16.666666,10.000000,10.000000z"/> 
<path class="st1" d = "M 10.000000,10.000000 C 16.666666,10.000000,23.333334,10.000000,30.000000,10.000000 C 30.000000,16.666666,30.000000,23.333334,30.000000,30.000000 C 23.333334,30.000000,16.666666,30.000000,10.000000,30.000000 C 10.000000,23.333334,10.000000,16.666666,10.000000,10.000000z"/> 
<path class="st1" d = "M 10.000000,10.000000 C 16.666666,10.000000,23.333334,10.000000,30.000000,10.000000 C 30.000000,16.666666,30.000000,23.333334,30.000000,30.000000 C 23.333334,30.000000,16.666666,30.000000,10.000000,30.000000 C 10.000000,23.333334,10.000000,16.666666,10.000000,10.000000z"/> 
<path class="st1" d = "M 10.000000,10.000000 C 16.666666,10.000000,23.333334,10.000000,30.000000,10.000000 C 30.000000,16.666666,30.000000,23.333334,30.000000,30.000000 C 23.333334,30.000000,16.666666,30.000000,10.000000,30.000000 C 10.000000,23.333334,10.000000,16.666666,10.000000,10.000000z"/> 
<path class="st1" d = "M 10.000000,10.000000 C 16.666666,10.000000,23.333334,10.000000,30.000000,10.000000 C 30.000000,16.666666,30.000000,23.333334,30.000000,30.000000 C 23.333334,30.000000,16.666666,30.000000,10.000000,30.000000 C 10.000000,23.333334,10.000000,16.666666,10.000000,10.000000z"/> 
<path class="st2" d = "M 164.000000,-710.000000 C 164.000000,-710.000000,164.000000,-710.000000,164.000000,-710.000000 C 169.522858,-710.000000,174.000000,-705.522827,174.000000,-700.000000 C 174.000000,-700.000000,174.000000,-700.000000,174.000000,-700.000000 C 174.000000,-694.477173,169.522858,-690.000000,164.000000,-690.000000 C 164.000000,-690.000000,164.000000,-690.000000,164.000000,-690.000000 C 158.477142,-690.000000,154.000000,-694.477173,154.000000,-700.000000 C 154.000000,-700.000000,154.000000,-700.000000,154.000000,-700.000000 C 154.000000,-705.522827,158.477142,-710.000000,164.000000,-710.000000 C 164.000000,-710.000000,164.000000,-710.000000,164.000000,-710.000000z"/> 
<path class="st2" d = "M 164.000000,-710.000000 C 164.000000,-710.000000,164.000000,-710.000000,164.000000,-710.000000 C 169.522858,-710.000000,174.000000,-705.522827,174.000000,-700.000000 C 174.000000,-700.000000,174.000000,-700.000000,174.000000,-700.000000 C 174.000000,-694.477173,169.522858,-690.000000,164.000000,-690.000000 C 164.000000,-690.000000,164.000000,-690.000000,164.000000,-690.000000 C 158.477142,-690.000000,154.000000,-694.477173,154.000000,-700.000000 C 154.000000,-700.000000,154.000000,-700.000000,154.000000,-700.000000 C 154.000000,-705.522827,158.477142,-710.000000,164.000000,-710.000000 C 164.000000,-710.000000,164.000000,-710.000000,164.000000,-710.000000z"/> 
<path class="st2" d = "M 164.000000,-710.000000 C 164.000000,-710.000000,164.000000,-710.000000,164.000000,-710.000000 C 169.522858,-710.000000,174.000000,-705.522827,174.000000,-700.000000 C 174.000000,-700.000000,174.000000,-700.000000,174.000000,-700.000000 C 174.000000,-694.477173,169.522858,-690.000000,164.000000,-690.000000 C 164.000000,-690.000000,164.000000,-690.000000,164.000000,-690.000000 C 158.477142,-690.000000,154.000000,-694.477173,154.000000,-700.000000 C 154.000000,-700.000000,154.000000,-700.000000,154.000000,-700.000000 C 154.000000,-705.522827,158.477142,-710.000000,164.000000,-710.000000 C 164.000000,-710.000000,164.000000,-710.000000,164.000000,-710.000000z"/> 
<path class="st4" d = "M 148.000000,238.000000 C 148.000000,240.761414,139.045685,243.000000,128.000000,243.000000 C 116.954300,243.000000,108.000000,240.761414,108.000000,238.000000 C 108.000000,235.238586,116.954300,233.000000,128.000000,233.000000 C 139.045685,233.000000,148.000000,235.238586,148.000000,238.000000 C 148.000000,238.000000,148.000000,238.000000,148.000000,238.000000z"/> 
<path class="st4" d = "M 148.000000,238.000000 C 148.000000,240.761414,139.045685,243.000000,128.000000,243.000000 C 116.954300,243.000000,108.000000,240.761414,108.000000,238.000000 C 108.000000,235.238586,116.954300,233.000000,128.000000,233.000000 C 139.045685,233.000000,148.000000,235.238586,148.000000,238.000000 C 148.000000,238.000000,148.000000,238.000000,148.000000,238.000000z"/> 
<path class="st4" d = "M 148.000000,238.000000 C 148.000000,240.761414,139.045685,243.000000,128.000000,243.000000 C 116.954300,243.000000,108.000000,240.761414,108.000000,238.000000 C 108.000000,235.238586,116.954300,233.000000,128.000000,233.000000 C 139.045685,233.000000,148.000000,235.238586,148.000000,238.000000 C 148.000000,238.000000,148.000000,238.000000,148.000000,238.000000z"/> 
<path class="st4" d = "M 148.000000,238.000000 C 148.000000,240.761414,139.045685,243.000000,128.000000,243.000000 C 116.954300,243.000000,108.000000,240.761414,108.000000,238.000000 C 108.000000,235.238586,116.954300,233.000000,128.000000,233.000000 C 139.045685,233.000000,148.000000,235.238586,148.000000,238.000000 C 148.000000,238.000000,148.000000,238.000000,148.000000,238.000000z"/> 
<path class="st2" d = "M 164.000000,-710.000000 C 164.000000,-710.000000,164.000000,-710.000000,164.000000,-710.000000 C 169.522858,-710.000000,174.000000,-705.522827,174.000000,-700.000000 C 174.000000,-700.000000,174.000000,-700.000000,174.000000,-700.000000 C 174.000000,-694.477173,169.522858,-690.000000,164.000000,-690.000000 C 164.000000,-690.000000,164.000000,-690.000000,164.000000,-690.000000 C 158.477142,-690.000000,154.000000,-694.477173,154.000000,-700.000000 C 154.000000,-700.000000,154.000000,-700.000000,154.000000,-700.000000 C 154.000000,-705.522827,158.477142,-710.000000,164.000000,-710.000000 C 164.000000,-710.000000,164.000000,-710.000000,164.000000,-710.000000z"/> 
<path class="st1" d = "M 10.000000,10.000000 C 16.666666,10.000000,23.333334,10.000000,30.000000,10.000000 C 30.000000,16.666666,30.000000,23.333334,30.000000,30.000000 C 23.333334,30.000000,16.666666,30.000000,10.000000,30.000000 C 10.000000,23.333334,10.000000,16.666666,10.000000,10.000000z"/> 
<path class="st1" d = "M 10.000000,10.000000 C 16.666666,10.000000,23.333334,10.000000,30.000000,10.000000 C 30.000000,16.666666,30.000000,23.333334,30.000000,30.000000 C 23.333334,30.000000,16.666666,30.000000,10.000000,30.000000 C 10.000000,23.333334,10.000000,16.666666,10.000000,10.000000z"/> 
<path class="st1" d = "M 10.000000,10.000000 C 16.666666,10.000000,23.333334,10.000000,30.000000,10.000000 C 30.000000,16.666666,30.000000,23.333334,30.000000,30.000000 C 23.333334,30.000000,16.666666,30.000000,10.000000,30.000000 C 10.000000,23.333334,10.000000,16.666666,10.000000,10.000000z"/> 
<path class="st4" d = "M 148.000000,238.000000 C 148.000000,240.761414,139.045685,243.000000,128.000000,243.000000 C 116.954300,243.000000,108.000000,240.761414,108.000000,238.000000 C 108.000000,235.238586,116.954300,233.000000,128.000000,233.000000 C 139.045685,233.000000,148.000000,235.238586,148.000000,238.000000 C 148.000000,238.000000,148.000000,238.000000,148.000000,238.000000z"/> 
<path class="st4" d = "M 148.000000,238.000000 C 148.000000,240.761414,139.045685,243.000000,128.000000,243.000000 C 116.954300,243.000000,108.000000,240.761414,108.000000,238.000000 C 108.000000,235.238586,116.954300,233.000000,128.000000,233.000000 C 139.045685,233.000000,148.000000,235.238586,148.000000,238.000000 C 148.000000,238.000000,148.000000,238.000000,148.000000,238.000000z"/> 
<path class="st1" d = "M 10.000000,10.000000 C 16.666666,10.000000,23.333334,10.000000,30.000000,10.000000 C 30.000000,16.666666,30.000000,23.333334,30.000000,30.000000 C 23.333334,30.000000,16.666666,30.000000,10.000000,30.000000 C 10.000000,23.333334,10.000000,16.666666,10.000000,10.000000z"/> 
<path class="st2" d = "M 164.000000,-710.000000 C 164.000000,-710.000000,164.000000,-710.000000,164.000000,-710.000000 C 169.522858,-710.000000,174.000000,-705.522827,174.000000,-700.000000 C 174.000000,-700.000000,174.000000,-700.000000,174.000000,-700.000000 C 174.000000,-694.477173,169.522858,-690.000000,164.000000,-690.000000 C 164.000000,-690.000000,164.000000,-690.000000,164.000000,-690.000000 C 158.477142,-690.000000,154.000000,-694.477173,154.000000,-700.000000 C 154.000000,-700.000000,154.000000,-700.000000,154.000000,-700.000000 C 154.000000,-705.522827,158.477142,-710.000000,164.000000,-710.000000 C 164.000000,-710.000000,164.000000,-710.000000,164.000000,-710.000000z"/> 
<path class="st4" d = "M 148.000000,238.000000 C 148.000000,240.761414,139.045685,243.000000,128.000000,243.000000 C 116.954300,243.000000,108.000000,240.761414,108.000000,238.000000 C 108.000000,235.238586,116.954300,233.000000,128.000000,233.000000 C 139.045685,233.000000,148.000000,235.238586,148.000000,238.000000 C 148.000000,238.000000,148.000000,238.000000,148.000000,238.000000z"/> 
<path class="st2" d = "M 164.000000,-710.000000 C 164.000000,-710.000000,164.000000,-710.000000,164.000000,-710.000000 C 169.522858,-710.000000,174.000000,-705.522827,174.000000,-700.000000 C 174.000000,-700.000000,174.000000,-700.000000,174.000000,-700.000000 C 174.000000,-694.477173,169.522858,-690.000000,164.000000,-690.000000 C 164.000000,-690.000000,164.000000,-690.000000,164.000000,-690.000000 C 158.477142,-690.000000,154.000000,-694.477173,154.000000,-700.000000 C 154.000000,-700.000000,154.000000,-700.000000,154.000000,-700.000000 C 154.000000,-705.522827,158.477142,-710.000000,164.000000,-710.000000 C 164.000000,-710.000000,164.000000,-710.000000,164.000000,-710.000000z"/> 
<path class="st1" d = "M 10.000000,10.000000 C 16.666666,10.000000,23.333334,10.000000,30.000000,10.000000 C 30.000000,16.666666,30.000000,23.333334,30.000000,30.000000 C 23.333334,30.000000,16.666666,30.000000,10.000000,30.000000 C 10.000000,23.333334,10.000000,16.666666,10.000000,10.000000z"/> 
<path class="st2" d = "M 164.000000,-710.000000 C 164.000000,-710.000000,164.000000,-710.000000,164.000000,-710.000000 C 169.522858,-710.000000,174.000000,-705.522827,174.000000,-700.000000 C 174.000000,-700.000000,174.000000,-700.000000,174.000000,-700.000000 C 174.000000,-694.477173,169.522858,-690.000000,164.000000,-690.000000 C 164.000000,-690.000000,164.000000,-690.000000,164.000000,-690.000000 C 158.477142,-690.000000,154.000000,-694.477173,154.000000,-700.000000 C 154.000000,-700.000000,154.000000,-700.000000,154.000000,-700.000000 C 154.000000,-705.522827,158.477142,-710.000000,164.000000,-710.000000 C 164.000000,-710.000000,164.000000,-710.000000,164.000000,-710.000000z"/> 
<path class="st4" d = "M 148.000000,238.000000 C 148.000000,240.761414,139.045685,243.000000,128.000000,243.000000 C 116.954300,243.000000,108.000000,240.761414,108.000000,238.000000 C 108.000000,235.238586,116.954300,233.000000,128.000000,233.000000 C 139.045685,233.000000,148.000000,235.238586,148.000000,238.000000 C 148.000000,238.000000,148.000000,238.000000,148.000000,238.000000z"/> 
<path class="st4" d = "M 148.000000,238.000000 C 148.000000,240.761414,139.045685,243.000000,128.000000,243.000000 C 116.954300,243.000000,108.000000,240.761414,108.000000,238.000000 C 108.000000,235.238586,116.954300,233.000000,128.000000,233.000000 C 139.045685,233.000000,148.000000,235.238586,148.000000,238.000000 C 148.000000,238.000000,148.000000,238.000000,148.000000,238.000000z"/> 
<path class="st1" d = "M 10.000000,10.000000 C 16.666666,10.000000,23.333334,10.000000,30.000000,10.000000 C 30.000000,16.666666,30.000000,23.333334,30.000000,30.000000 C 23.333334,30.000000,16.666666,30.000000,10.000000,30.000000 C 10.000000,23.333334,10.000000,16.666666,10.000000,10.000000z"/> 
<path class="st2" d = "M 164.000000,-710.000000 C 164.000000,-710.000000,164.000000,-710.000000,164.000000,-710.000000 C 169.522858,-710.000000,174.000000,-705.522827,174.000000,-700.000000 C 174.000000,-700.000000,174.000000,-700.000000,174.000000,-700.000000 C 174.000000,-694.477173,169.522858,-690.000000,164.000000,-690.000000 C 164.000000,-690.000000,164.000000,-690.000000,164.000000,-690.000000 C 158.477142,-690.000000,154.000000,-694.477173,154.000000,-700.000000 C 154.000000,-700.000000,154.000000,-700.000000,154.000000,-700.000000 C 154.000000,-705.522827,158.477142,-710.000000,164.000000,-710.000000 C 164.000000,-710.000000,164.000000,-710.000000,164.000000,-710.000000z"/> 
<path class="st1" d = "M 10.000000,10.000000 C 16.666666,10.000000,23.333334,10.000000,30.000000,10.000000 C 30.000000,16.666666,30.000000,23.333334,30.000000,30.000000 C 23.333334,30.000000,16.666666,30.000000,10.000000,30.000000 C 10.000000,23.333334,10.000000,16.666666,10.000000,10.000000z"/> 
<path class="st4" d = "M 148.000000,238.000000 C 148.000000,240.761414,139.045685,243.000000,128.000000,243.000000 C 116.954300,243.000000,108.000000,240.761414,108.000000,238.000000 C 108.000000,235.238586,116.954300,233.000000,128.000000,233.000000 C 139.045685,233.000000,148.000000,235.238586,148.000000,238.000000 C 148.000000,238.000000,148.000000,238.000000,148.000000,238.000000z"/> 
<path class="st1" d = "M 10.000000,10.000000 C 16.666666,10.000000,23.333334,10.000000,30.000000,10.000000 C 30.000000,16.666666,30.000000,23.333334,30.000000,30.000000 C 23.333334,30.000000,16.666666,30.000000,10.000000,30.000000 C 10.000000,23.333334,10.000000,16.666666,10.000000,10.000000z"/> 
<path class="st2" d = "M 164.000000,-710.000000 C 164.000000,-710.000000,164.000000,-710.000000,164.000000,-710.000000 C 169.522858,-710.000000,174.000000,-705.522827,174.000000,-700.000000 C 174.000000,-700.000000,174.000000,-700.000000,174.000000,-700.000000 C 174.000000,-694.477173,169.522858,-690.000000,164.000000,-690.000000 C 164.000000,-690.000000,164.000000,-690.000000,164.000000,-690.000000 C 158.477142,-690.000000,154.000000,-694.477173,154.000000,-700.000000 C 154.000000,-700.000000,154.000000,-700.000000,154.000000,-700.000000 C 154.000000,-705.522827,158.477142,-710.000000,164.000000,-710.000000 C 164.000000,-710.000000,164.000000,-710.000000,164.000000,-710.000000z"/> 
<path class="st4" d = "M 148.000000,238.000000 C 148.000000,240.761414,139.045685,243.000000,128.000000,243.000000 C 116.954300,243.000000,108.000000,240.761414,108.000000,238.000000 C 108.000000,235.238586,116.954300,233.000000,128.000000,233.000000 C 139.045685,233.000000,148.000000,235.238586,148.000000,238.000000 C 148.000000,238.000000,148.000000,238.000000,148.000000,238.000000z"/> 
<path class="st4" d = "M 148.000000,238.000000 C 148.000000,240.761414,139.045685,243.000000,128.000000,243.000000 C 116.954300,243.000000,108.000000,240.761414,108.000000,238.000000 C 108.000000,235.238586,116.954300,233.000000,128.000000,233.000000 C 139.045685,233.000000,148.000000,235.238586,148.000000,238.000000 C 148.000000,238.000000,148.000000,238.000000,148.000000,238.000000z"/> 
<path class="st1" d = "M 10.000000,10.000000 C 16.666666,10.000000,23.333334,10.000000,30.000000,10.000000 C 30.000000,16.666666,30.000000,23.333334,30.000000,30.000000 C 23.333334,30.000000,16.666666,30.000000,10.000000,30.000000 C 10.000000,23.333334,10.000000,16.666666,10.000000,10.000000z"/> 
<path class="st1" d = "M 10.000000,10.000000 C 16.666666,10.000000,23.333334,10.000000,30.000000,10.000000 C 30.000000,16.666666,30.000000,23.333334,30.000000,30.000000 C 23.333334,30.000000,16.666666,30.000000,10.000000,30.000000 C 10.000000,23.333334,10.000000,16.666666,10.000000,10.000000z"/> 
<path class="st1" d = "M 10.000000,10.000000 C 16.666666,10.000000,23.333334,10.000000,30.000000,10.000000 C 30.000000,16.666666,30.000000,23.333334,30.000000,30.000000 C 23.333334,30.000000,16.666666,30.000000,10.000000,30.000000 C 10.000000,23.333334,10.000000,16.666666,10.000000,10.000000z"/> 
<path class="st4" d = "M 148.000000,238.000000 C 148.000000,240.761414,139.045685,243.000000,128.000000,243.000000 C 116.954300,243.000000,108.000000,240.761414,108.000000,238.000000 C 108.000000,235.238586,116.954300,233.000000,128.000000,233.000000 C 139.045685,233.000000,148.000000,235.238586,148.000000,238.000000 C 148.000000,238.000000,148.000000,238.000000,148.000000,238.000000z"/> 
<path class="st2" d = "M 164.000000,-710.000000 C 164.000000,-710.000000,164.000000,-710.000000,164.000000,-710.000000 C 169.522858,-710.000000,174.000000,-705.522827,174.000000,-700.000000 C 174.000000,-700.000000,174.000000,-700.000000,174.000000,-700.000000 C 174.000000,-694.477173,169.522858,-690.000000,164.000000,-690.000000 C 164.000000,-690.000000,164.000000,-690.000000,164.000000,-690.000000 C 158.477142,-690.000000,154.000000,-694.477173,154.000000,-700.000000 C 154.000000,-700.000000,154.000000,-700.000000,154.000000,-700.000000 C 154.000000,-705.522827,158.477142,-710.000000,164.000000,-710.000000 C 164.000000,-710.000000,164.000000,-710.000000,164.000000,-710.000000z"/> 
<path class="st1" d = "M 10.000000,10.000000 C 16.666666,10.000000,23.333334,10.000000,30.000000,10.000000 C 30.000000,16.666666,30.000000,23.333334,30.000000,30.000000 C 23.333334,30.000000,16.666666,30.000000,10.000000,30.000000 C 10.000000,23.333334,10.000000,16.666666,10.000000,10.000000z"/> 
<path class="st1" d = "M 10.000000,10.000000 C 16.666666,10.000000,23.333334,10.000000,30.000000,10.000000 C 30.000000,16.666666,30.000000,23.333334,30.000000,30.000000 C 23.333334,30.000000,16.666666,30.000000,10.000000,30.000000 C 10.000000,23.333334,10.000000,16.666666,10.000000,10.000000z"/> 
<path class="st1" d = "M 10.000000,10.000000 C 16.666666,10.000000,23.333334,10.000000,30.000000,10.000000 C 30.000000,16.666666,30.000000,23.333334,30.000000,30.000000 C 23.333334,30.000000,16.666666,30.000000,10.000000,30.000000 C 10.000000,23.333334,10.000000,16.666666,10.000000,10.000000z"/> 
<path class="st1" d = "M 10.000000,10.000000 C 16.666666,10.000000,23.333334,10.000000,30.000000,10.000000 C 30.000000,16.666666,30.000000,23.333334,30.000000,30.000000 C 23.333334,30.000000,16.666666,30.000000,10.000000,30.000000 C 10.000000,23.333334,10.000000,16.666666,10.000000,10.000000z"/> 
</svg>
