<?xml version="1.0" standalone="no"?> 
<svg width="200pt" height= "250pt" version="1.1" xmlns="http://www.w3.org/2000/svg">
<circle cx="11.000000" cy="17.000000" r="0.1" stroke="black" fill="red" stroke-width="0.1"/> 
<circle cx="4.899051" cy="11.880696" r="0.1" stroke="black" fill="red" stroke-width="0.1"/> 
<circle cx="0.856688" cy="3.592620" r="0.1" stroke="black" fill="red" stroke-width="0.1"/> 
<circle cx="18.278271" cy="11.313593" r="0.1" stroke="black" fill="red" stroke-width="0.1"/> 
<circle cx="13.925324" cy="23.273380" r="0.1" stroke="black" fill="red" stroke-width="0.1"/> 
<circle cx="0.724363" cy="16.683126" r="0.1" stroke="black" fill="red" stroke-width="0.1"/> 
<circle cx="11.777237" cy="10.791300" r="0.1" stroke="black" fill="red" stroke-width="0.1"/> 
<circle cx="23.687263" cy="22.590759" r="0.1" stroke="black" fill="red" stroke-width="0.1"/> 
<circle cx="23.190323" cy="28.270817" r="0.1" stroke="black" fill="red" stroke-width="0.1"/> 
<circle cx="29.220928" cy="29.424265" r="0.1" stroke="black" fill="red" stroke-width="0.1"/> 
<circle cx="6.289709" cy="6.303073" r="0.1" stroke="black" fill="red" stroke-width="0.1"/> 
<circle cx="17.103231" cy="16.680143" r="0.1" stroke="black" fill="red" stroke-width="0.1"/> 
<circle cx="7.200150" cy="21.109900" r="0.1" stroke="black" fill="red" stroke-width="0.1"/> 
<circle cx="27.285820" cy="16.831867" r="0.1" stroke="black" fill="red" stroke-width="0.1"/> 
<circle cx="17.333868" cy="27.735640" r="0.1" stroke="black" fill="red" stroke-width="0.1"/> 
<circle cx="24.420416" cy="3.452006" r="0.1" stroke="black" fill="red" stroke-width="0.1"/> 
<circle cx="16.134075" cy="5.086400" r="0.1" stroke="black" fill="red" stroke-width="0.1"/> 
<circle cx="29.606136" cy="7.525589" r="0.1" stroke="black" fill="red" stroke-width="0.1"/> 
<circle cx="11.293335" cy="29.815561" r="0.1" stroke="black" fill="red" stroke-width="0.1"/> 
<circle cx="21.640697" cy="15.836479" r="0.1" stroke="black" fill="red" stroke-width="0.1"/> 
<circle cx="23.172583" cy="7.862758" r="0.1" stroke="black" fill="red" stroke-width="0.1"/> 
<circle cx="5.373075" cy="25.970900" r="0.1" stroke="black" fill="red" stroke-width="0.1"/> 
<circle cx="0.074106" cy="21.524538" r="0.1" stroke="black" fill="red" stroke-width="0.1"/> 
<circle cx="17.000000" cy="8.000000" r="0.1" stroke="black" fill="red" stroke-width="0.1"/> 
<circle cx="7.296569" cy="10.062527" r="0.1" stroke="black" fill="red" stroke-width="0.1"/> 
<circle cx="1.156377" cy="11.480103" r="0.1" stroke="black" fill="red" stroke-width="0.1"/> 
<circle cx="17.000000" cy="0.314888" r="0.1" stroke="black" fill="red" stroke-width="0.1"/> 
<circle cx="7.178564" cy="3.301998" r="0.1" stroke="black" fill="red" stroke-width="0.1"/> 
<circle cx="1.278876" cy="5.848894" r="0.1" stroke="black" fill="red" stroke-width="0.1"/> 
<circle cx="12.431304" cy="10.228302" r="0.1" stroke="black" fill="red" stroke-width="0.1"/> 
<circle cx="21.255863" cy="10.228302" r="0.1" stroke="black" fill="red" stroke-width="0.1"/> 
<circle cx="5.207478" cy="16.732664" r="0.1" stroke="black" fill="red" stroke-width="0.1"/> 
<circle cx="25.728682" cy="7.389632" r="0.1" stroke="black" fill="red" stroke-width="0.1"/> 
<circle cx="9.349035" cy="23.625374" r="0.1" stroke="black" fill="red" stroke-width="0.1"/> 
<circle cx="28.170486" cy="14.481146" r="0.1" stroke="black" fill="red" stroke-width="0.1"/> 
<circle cx="19.188370" cy="22.066978" r="0.1" stroke="black" fill="red" stroke-width="0.1"/> 
<circle cx="18.678654" cy="16.016811" r="0.1" stroke="black" fill="red" stroke-width="0.1"/> 
<circle cx="22.641239" cy="3.101153" r="0.1" stroke="black" fill="red" stroke-width="0.1"/> 
<circle cx="0.458676" cy="24.045177" r="0.1" stroke="black" fill="red" stroke-width="0.1"/> 
<circle cx="1.540804" cy="29.092756" r="0.1" stroke="black" fill="red" stroke-width="0.1"/> 
<circle cx="13.132164" cy="3.599503" r="0.1" stroke="black" fill="red" stroke-width="0.1"/> 
<circle cx="14.000000" cy="34.000000" r="0.1" stroke="black" fill="red" stroke-width="0.1"/> 
<circle cx="19.610466" cy="33.607677" r="0.1" stroke="black" fill="red" stroke-width="0.1"/> 
<circle cx="27.349445" cy="37.382229" r="0.1" stroke="black" fill="red" stroke-width="0.1"/> 
<circle cx="32.463306" cy="36.754326" r="0.1" stroke="black" fill="red" stroke-width="0.1"/> 
<circle cx="26.286749" cy="30.577770" r="0.1" stroke="black" fill="red" stroke-width="0.1"/> 
<circle cx="38.491318" cy="37.601509" r="0.1" stroke="black" fill="red" stroke-width="0.1"/> 
<circle cx="23.669571" cy="24.699493" r="0.1" stroke="black" fill="red" stroke-width="0.1"/> 
<circle cx="32.833366" cy="24.859447" r="0.1" stroke="black" fill="red" stroke-width="0.1"/> 
<circle cx="39.990265" cy="21.212824" r="0.1" stroke="black" fill="red" stroke-width="0.1"/> 
<circle cx="31.477112" cy="18.610092" r="0.1" stroke="black" fill="red" stroke-width="0.1"/> 
<circle cx="39.073776" cy="12.493007" r="0.1" stroke="black" fill="red" stroke-width="0.1"/> 
<circle cx="37.112324" cy="6.456274" r="0.1" stroke="black" fill="red" stroke-width="0.1"/> 
<circle cx="39.009583" cy="0.250611" r="0.1" stroke="black" fill="red" stroke-width="0.1"/> 
<circle cx="30.216646" cy="13.150419" r="0.1" stroke="black" fill="red" stroke-width="0.1"/> 
<circle cx="23.569689" cy="7.165472" r="0.1" stroke="black" fill="red" stroke-width="0.1"/> 
<circle cx="18.246925" cy="39.635860" r="0.1" stroke="black" fill="red" stroke-width="0.1"/> 
<circle cx="35.472256" cy="18.256645" r="0.1" stroke="black" fill="red" stroke-width="0.1"/> 
<circle cx="23.338427" cy="13.787987" r="0.1" stroke="black" fill="red" stroke-width="0.1"/> 
<circle cx="19.057177" cy="20.087101" r="0.1" stroke="black" fill="red" stroke-width="0.1"/> 
<circle cx="31.876415" cy="5.823653" r="0.1" stroke="black" fill="red" stroke-width="0.1"/> 
<circle cx="37.870865" cy="29.713268" r="0.1" stroke="black" fill="red" stroke-width="0.1"/> 
<circle cx="6.482008" cy="34.657742" r="0.1" stroke="black" fill="red" stroke-width="0.1"/> 
<circle cx="14.622410" cy="23.078390" r="0.1" stroke="black" fill="red" stroke-width="0.1"/> 
<circle cx="17.602016" cy="2.829706" r="0.1" stroke="black" fill="red" stroke-width="0.1"/> 
<circle cx="10.528622" cy="22.694544" r="0.1" stroke="black" fill="red" stroke-width="0.1"/> 
<circle cx="9.599682" cy="4.824912" r="0.1" stroke="black" fill="red" stroke-width="0.1"/> 
<circle cx="16.101034" cy="8.431448" r="0.1" stroke="black" fill="red" stroke-width="0.1"/> 
<circle cx="11.665034" cy="15.758635" r="0.1" stroke="black" fill="red" stroke-width="0.1"/> 
<circle cx="12.581448" cy="0.801264" r="0.1" stroke="black" fill="red" stroke-width="0.1"/> 
<circle cx="5.233288" cy="0.287431" r="0.1" stroke="black" fill="red" stroke-width="0.1"/> 
<circle cx="1.802575" cy="24.076614" r="0.1" stroke="black" fill="red" stroke-width="0.1"/> 
<circle cx="2.144928" cy="17.544147" r="0.1" stroke="black" fill="red" stroke-width="0.1"/> 
<circle cx="26.715256" cy="20.220774" r="0.1" stroke="black" fill="red" stroke-width="0.1"/> 
<circle cx="4.824137" cy="7.472038" r="0.1" stroke="black" fill="red" stroke-width="0.1"/> 
<circle cx="0.541849" cy="3.227771" r="0.1" stroke="black" fill="red" stroke-width="0.1"/> 
<circle cx="0.045221" cy="12.828128" r="0.1" stroke="black" fill="red" stroke-width="0.1"/> 
<circle cx="8.841258" cy="11.001781" r="0.1" stroke="black" fill="red" stroke-width="0.1"/> 
<circle cx="11.781048" cy="29.137714" r="0.1" stroke="black" fill="red" stroke-width="0.1"/> 
<circle cx="38.000000" cy="2.000000" r="0.1" stroke="black" fill="red" stroke-width="0.1"/> 
<circle cx="39.654610" cy="7.411977" r="0.1" stroke="black" fill="red" stroke-width="0.1"/> 
<circle cx="30.255274" cy="5.611426" r="0.1" stroke="black" fill="red" stroke-width="0.1"/> 
<circle cx="23.904898" cy="0.649970" r="0.1" stroke="black" fill="red" stroke-width="0.1"/> 
<circle cx="23.088131" cy="6.618703" r="0.1" stroke="black" fill="red" stroke-width="0.1"/> 
<circle cx="29.000000" cy="15.000000" r="0.1" stroke="black" fill="red" stroke-width="0.1"/> 
<circle cx="23.561184" cy="21.040417" r="0.1" stroke="black" fill="red" stroke-width="0.1"/> 
<circle cx="23.445166" cy="14.393715" r="0.1" stroke="black" fill="red" stroke-width="0.1"/> 
<circle cx="38.834106" cy="15.171655" r="0.1" stroke="black" fill="red" stroke-width="0.1"/> 
<circle cx="33.018166" cy="11.947826" r="0.1" stroke="black" fill="red" stroke-width="0.1"/> 
<circle cx="28.505627" cy="24.433220" r="0.1" stroke="black" fill="red" stroke-width="0.1"/> 
<circle cx="27.031757" cy="4.285575" r="0.1" stroke="black" fill="red" stroke-width="0.1"/> 
<circle cx="32.335228" cy="19.351170" r="0.1" stroke="black" fill="red" stroke-width="0.1"/> 
<circle cx="32.751251" cy="3.785182" r="0.1" stroke="black" fill="red" stroke-width="0.1"/> 
<circle cx="19.470064" cy="24.123297" r="0.1" stroke="black" fill="red" stroke-width="0.1"/> 
<circle cx="20.115499" cy="1.349798" r="0.1" stroke="black" fill="red" stroke-width="0.1"/> 
<circle cx="25.185699" cy="9.788028" r="0.1" stroke="black" fill="red" stroke-width="0.1"/> 
<circle cx="37.093559" cy="25.184566" r="0.1" stroke="black" fill="red" stroke-width="0.1"/> 
<circle cx="36.007225" cy="32.043407" r="0.1" stroke="black" fill="red" stroke-width="0.1"/> 
<circle cx="23.394096" cy="30.612911" r="0.1" stroke="black" fill="red" stroke-width="0.1"/> 
<circle cx="20.954393" cy="9.033731" r="0.1" stroke="black" fill="red" stroke-width="0.1"/> 
<circle cx="11.191739" cy="20.263050" r="0.1" stroke="black" fill="red" stroke-width="0.1"/> 
<circle cx="30.274345" cy="28.810406" r="0.1" stroke="black" fill="red" stroke-width="0.1"/> 
<circle cx="31.391876" cy="35.148232" r="0.1" stroke="black" fill="red" stroke-width="0.1"/> 
<circle cx="15.564053" cy="10.478069" r="0.1" stroke="black" fill="red" stroke-width="0.1"/> 
<circle cx="25.871378" cy="38.733284" r="0.1" stroke="black" fill="red" stroke-width="0.1"/> 
<circle cx="18.393627" cy="16.031422" r="0.1" stroke="black" fill="red" stroke-width="0.1"/> 
<circle cx="32.611664" cy="39.680569" r="0.1" stroke="black" fill="red" stroke-width="0.1"/> 
<circle cx="39.261524" cy="7.246756" r="0.1" stroke="black" fill="red" stroke-width="0.1"/> 
<circle cx="21.080530" cy="35.252529" r="0.1" stroke="black" fill="red" stroke-width="0.1"/> 
<circle cx="15.175298" cy="34.631863" r="0.1" stroke="black" fill="red" stroke-width="0.1"/> 
<circle cx="14.276625" cy="29.692579" r="0.1" stroke="black" fill="red" stroke-width="0.1"/> 
<circle cx="8.402992" cy="35.364681" r="0.1" stroke="black" fill="red" stroke-width="0.1"/> 
<circle cx="12.512963" cy="39.247650" r="0.1" stroke="black" fill="red" stroke-width="0.1"/> 
<circle cx="8.819609" cy="27.415188" r="0.1" stroke="black" fill="red" stroke-width="0.1"/> 
<circle cx="20.841356" cy="39.976292" r="0.1" stroke="black" fill="red" stroke-width="0.1"/> 
<circle cx="14.072954" cy="24.500700" r="0.1" stroke="black" fill="red" stroke-width="0.1"/> 
<circle cx="6.830022" cy="7.125390" r="0.1" stroke="black" fill="red" stroke-width="0.1"/> 
<circle cx="0.500712" cy="14.154800" r="0.1" stroke="black" fill="red" stroke-width="0.1"/> 
<circle cx="39.578560" cy="1.197388" r="0.1" stroke="black" fill="red" stroke-width="0.1"/> 
<circle cx="4.738396" cy="24.450014" r="0.1" stroke="black" fill="red" stroke-width="0.1"/> 
<circle cx="3.102351" cy="29.485241" r="0.1" stroke="black" fill="red" stroke-width="0.1"/> 
<circle cx="11.836785" cy="4.574317" r="0.1" stroke="black" fill="red" stroke-width="0.1"/> 
<circle cx="1.802688" cy="37.690994" r="0.1" stroke="black" fill="red" stroke-width="0.1"/> 
<circle cx="3.372655" cy="3.233731" r="0.1" stroke="black" fill="red" stroke-width="0.1"/> 
<circle cx="9.945711" cy="13.989936" r="0.1" stroke="black" fill="red" stroke-width="0.1"/> 
<circle cx="1.805871" cy="8.501537" r="0.1" stroke="black" fill="red" stroke-width="0.1"/> 
<circle cx="1.020473" cy="20.095697" r="0.1" stroke="black" fill="red" stroke-width="0.1"/> 
<circle cx="39.000000" cy="24.000000" r="0.1" stroke="black" fill="red" stroke-width="0.1"/> 
<circle cx="34.471581" cy="30.467251" r="0.1" stroke="black" fill="red" stroke-width="0.1"/> 
<circle cx="33.412888" cy="18.214375" r="0.1" stroke="black" fill="red" stroke-width="0.1"/> 
<circle cx="38.574608" cy="14.034492" r="0.1" stroke="black" fill="red" stroke-width="0.1"/> 
<circle cx="27.090582" cy="34.902203" r="0.1" stroke="black" fill="red" stroke-width="0.1"/> 
<circle cx="26.371820" cy="29.787956" r="0.1" stroke="black" fill="red" stroke-width="0.1"/> 
<circle cx="20.577250" cy="32.002281" r="0.1" stroke="black" fill="red" stroke-width="0.1"/> 
<circle cx="25.295679" cy="19.500013" r="0.1" stroke="black" fill="red" stroke-width="0.1"/> 
<circle cx="32.568588" cy="24.208361" r="0.1" stroke="black" fill="red" stroke-width="0.1"/> 
<circle cx="33.214634" cy="8.286625" r="0.1" stroke="black" fill="red" stroke-width="0.1"/> 
<circle cx="27.141066" cy="12.539383" r="0.1" stroke="black" fill="red" stroke-width="0.1"/> 
<circle cx="18.340805" cy="26.466888" r="0.1" stroke="black" fill="red" stroke-width="0.1"/> 
<circle cx="24.087566" cy="6.796587" r="0.1" stroke="black" fill="red" stroke-width="0.1"/> 
<circle cx="20.406284" cy="21.779976" r="0.1" stroke="black" fill="red" stroke-width="0.1"/> 
<circle cx="22.110909" cy="38.654655" r="0.1" stroke="black" fill="red" stroke-width="0.1"/> 
<circle cx="36.579617" cy="35.201981" r="0.1" stroke="black" fill="red" stroke-width="0.1"/> 
<circle cx="31.342175" cy="37.558891" r="0.1" stroke="black" fill="red" stroke-width="0.1"/> 
<circle cx="36.088898" cy="2.880925" r="0.1" stroke="black" fill="red" stroke-width="0.1"/> 
<circle cx="21.654682" cy="13.897902" r="0.1" stroke="black" fill="red" stroke-width="0.1"/> 
<circle cx="15.362965" cy="35.928307" r="0.1" stroke="black" fill="red" stroke-width="0.1"/> 
<circle cx="15.817120" cy="15.225967" r="0.1" stroke="black" fill="red" stroke-width="0.1"/> 
<circle cx="9.858435" cy="29.596069" r="0.1" stroke="black" fill="red" stroke-width="0.1"/> 
<circle cx="8.107243" cy="35.293514" r="0.1" stroke="black" fill="red" stroke-width="0.1"/> 
<circle cx="12.949217" cy="9.075729" r="0.1" stroke="black" fill="red" stroke-width="0.1"/> 
<circle cx="29.411093" cy="4.536884" r="0.1" stroke="black" fill="red" stroke-width="0.1"/> 
<circle cx="5.446383" cy="12.898615" r="0.1" stroke="black" fill="red" stroke-width="0.1"/> 
<circle cx="11.357549" cy="23.583452" r="0.1" stroke="black" fill="red" stroke-width="0.1"/> 
<circle cx="2.797358" cy="7.217761" r="0.1" stroke="black" fill="red" stroke-width="0.1"/> 
<circle cx="11.544125" cy="17.947130" r="0.1" stroke="black" fill="red" stroke-width="0.1"/> 
<circle cx="4.430817" cy="26.334829" r="0.1" stroke="black" fill="red" stroke-width="0.1"/> 
<circle cx="7.557802" cy="6.561671" r="0.1" stroke="black" fill="red" stroke-width="0.1"/> 
<circle cx="13.938959" cy="3.853031" r="0.1" stroke="black" fill="red" stroke-width="0.1"/> 
<circle cx="17.690948" cy="1.774105" r="0.1" stroke="black" fill="red" stroke-width="0.1"/> 
<circle cx="5.182384" cy="20.458534" r="0.1" stroke="black" fill="red" stroke-width="0.1"/> 
<circle cx="3.000000" cy="27.000000" r="0.1" stroke="black" fill="red" stroke-width="0.1"/> 
<circle cx="11.624951" cy="29.473166" r="0.1" stroke="black" fill="red" stroke-width="0.1"/> 
<circle cx="1.967996" cy="36.818859" r="0.1" stroke="black" fill="red" stroke-width="0.1"/> 
<circle cx="10.451920" cy="37.412113" r="0.1" stroke="black" fill="red" stroke-width="0.1"/> 
<circle cx="18.297043" cy="35.744579" r="0.1" stroke="black" fill="red" stroke-width="0.1"/> 
<circle cx="2.739719" cy="19.546585" r="0.1" stroke="black" fill="red" stroke-width="0.1"/> 
<circle cx="15.315567" cy="40.334488" r="0.1" stroke="black" fill="red" stroke-width="0.1"/> 
<circle cx="23.990921" cy="35.721722" r="0.1" stroke="black" fill="red" stroke-width="0.1"/> 
<circle cx="18.905937" cy="30.268745" r="0.1" stroke="black" fill="red" stroke-width="0.1"/> 
<circle cx="12.188756" cy="24.537878" r="0.1" stroke="black" fill="red" stroke-width="0.1"/> 
<circle cx="16.112112" cy="21.360806" r="0.1" stroke="black" fill="red" stroke-width="0.1"/> 
<circle cx="23.176811" cy="21.607510" r="0.1" stroke="black" fill="red" stroke-width="0.1"/> 
<circle cx="25.777695" cy="30.309566" r="0.1" stroke="black" fill="red" stroke-width="0.1"/> 
<circle cx="31.332762" cy="39.960537" r="0.1" stroke="black" fill="red" stroke-width="0.1"/> 
<circle cx="11.388396" cy="43.748325" r="0.1" stroke="black" fill="red" stroke-width="0.1"/> 
<circle cx="30.484259" cy="22.764896" r="0.1" stroke="black" fill="red" stroke-width="0.1"/> 
<circle cx="39.829865" cy="21.117010" r="0.1" stroke="black" fill="red" stroke-width="0.1"/> 
<circle cx="28.488022" cy="13.373351" r="0.1" stroke="black" fill="red" stroke-width="0.1"/> 
<circle cx="0.177348" cy="12.104919" r="0.1" stroke="black" fill="red" stroke-width="0.1"/> 
<circle cx="31.519831" cy="31.635242" r="0.1" stroke="black" fill="red" stroke-width="0.1"/> 
<circle cx="20.402830" cy="41.530182" r="0.1" stroke="black" fill="red" stroke-width="0.1"/> 
<circle cx="39.813522" cy="34.330029" r="0.1" stroke="black" fill="red" stroke-width="0.1"/> 
<circle cx="37.462082" cy="39.531933" r="0.1" stroke="black" fill="red" stroke-width="0.1"/> 
<circle cx="32.439735" cy="17.924921" r="0.1" stroke="black" fill="red" stroke-width="0.1"/> 
<circle cx="9.007189" cy="19.850607" r="0.1" stroke="black" fill="red" stroke-width="0.1"/> 
<circle cx="21.915779" cy="14.455841" r="0.1" stroke="black" fill="red" stroke-width="0.1"/> 
<circle cx="7.016917" cy="31.461239" r="0.1" stroke="black" fill="red" stroke-width="0.1"/> 
<circle cx="18.499140" cy="5.068699" r="0.1" stroke="black" fill="red" stroke-width="0.1"/> 
<circle cx="12.890594" cy="12.509752" r="0.1" stroke="black" fill="red" stroke-width="0.1"/> 
<circle cx="5.257064" cy="10.606501" r="0.1" stroke="black" fill="red" stroke-width="0.1"/> 
<circle cx="25.657227" cy="6.460090" r="0.1" stroke="black" fill="red" stroke-width="0.1"/> 
<circle cx="31.427652" cy="1.787288" r="0.1" stroke="black" fill="red" stroke-width="0.1"/> 
<circle cx="9.594910" cy="6.417489" r="0.1" stroke="black" fill="red" stroke-width="0.1"/> 
<circle cx="30.858013" cy="8.298282" r="0.1" stroke="black" fill="red" stroke-width="0.1"/> 
<circle cx="3.883358" cy="4.561694" r="0.1" stroke="black" fill="red" stroke-width="0.1"/> 
<circle cx="37.353394" cy="5.208515" r="0.1" stroke="black" fill="red" stroke-width="0.1"/> 
<circle cx="25.483257" cy="0.082760" r="0.1" stroke="black" fill="red" stroke-width="0.1"/> 
<circle cx="36.345512" cy="12.379966" r="0.1" stroke="black" fill="red" stroke-width="0.1"/> 
<circle cx="13.220686" cy="1.940028" r="0.1" stroke="black" fill="red" stroke-width="0.1"/> 
</svg>
