<?xml version="1.0" standalone="no"?> 
<svg width="300pt" height= "300pt" version="1.1" xmlns="http://www.w3.org/2000/svg">
<circle cx="21.000000" cy="27.000000" r="0.1" stroke="black" fill="red" stroke-width="0.2"/> 
<circle cx="18.559620" cy="24.952278" r="0.1" stroke="black" fill="red" stroke-width="0.2"/> 
<circle cx="16.942675" cy="21.637047" r="0.1" stroke="black" fill="red" stroke-width="0.2"/> 
<circle cx="23.911308" cy="24.725437" r="0.1" stroke="black" fill="red" stroke-width="0.2"/> 
<circle cx="22.170130" cy="29.509352" r="0.1" stroke="black" fill="red" stroke-width="0.2"/> 
<circle cx="16.889744" cy="26.873249" r="0.1" stroke="black" fill="red" stroke-width="0.2"/> 
<circle cx="21.310894" cy="24.516520" r="0.1" stroke="black" fill="red" stroke-width="0.2"/> 
<circle cx="18.888622" cy="18.522882" r="0.1" stroke="black" fill="red" stroke-width="0.2"/> 
<circle cx="19.561615" cy="22.472254" r="0.1" stroke="black" fill="red" stroke-width="0.2"/> 
<circle cx="21.618439" cy="18.331995" r="0.1" stroke="black" fill="red" stroke-width="0.2"/> 
<circle cx="19.860838" cy="29.819525" r="0.1" stroke="black" fill="red" stroke-width="0.2"/> 
<circle cx="15.741916" cy="18.853615" r="0.1" stroke="black" fill="red" stroke-width="0.2"/> 
<circle cx="24.105129" cy="31.898878" r="0.1" stroke="black" fill="red" stroke-width="0.2"/> 
<circle cx="24.466328" cy="29.389013" r="0.1" stroke="black" fill="red" stroke-width="0.2"/> 
<circle cx="21.151981" cy="15.932267" r="0.1" stroke="black" fill="red" stroke-width="0.2"/> 
<circle cx="23.740778" cy="16.926014" r="0.1" stroke="black" fill="red" stroke-width="0.2"/> 
<circle cx="12.818052" cy="20.217035" r="0.1" stroke="black" fill="red" stroke-width="0.2"/> 
<circle cx="26.044334" cy="15.486591" r="0.1" stroke="black" fill="red" stroke-width="0.2"/> 
<circle cx="21.927826" cy="32.282864" r="0.1" stroke="black" fill="red" stroke-width="0.2"/> 
<circle cx="23.559944" cy="26.898739" r="0.1" stroke="black" fill="red" stroke-width="0.2"/> 
<circle cx="19.016106" cy="27.922228" r="0.1" stroke="black" fill="red" stroke-width="0.2"/> 
<circle cx="26.517229" cy="28.811531" r="0.1" stroke="black" fill="red" stroke-width="0.2"/> 
<circle cx="27.509132" cy="30.680607" r="0.1" stroke="black" fill="red" stroke-width="0.2"/> 
<circle cx="26.969240" cy="19.271629" r="0.1" stroke="black" fill="red" stroke-width="0.2"/> 
<circle cx="24.783342" cy="21.684292" r="0.1" stroke="black" fill="red" stroke-width="0.2"/> 
<circle cx="24.222601" cy="19.716652" r="0.1" stroke="black" fill="red" stroke-width="0.2"/> 
<circle cx="21.412031" cy="20.566299" r="0.1" stroke="black" fill="red" stroke-width="0.2"/> 
<circle cx="16.457020" cy="28.704618" r="0.1" stroke="black" fill="red" stroke-width="0.2"/> 
<circle cx="28.089727" cy="25.854094" r="0.1" stroke="black" fill="red" stroke-width="0.2"/> 
<circle cx="31.195843" cy="29.411171" r="0.1" stroke="black" fill="red" stroke-width="0.2"/> 
<circle cx="13.443499" cy="30.109848" r="0.1" stroke="black" fill="red" stroke-width="0.2"/> 
<circle cx="28.737171" cy="33.438828" r="0.1" stroke="black" fill="red" stroke-width="0.2"/> 
<circle cx="29.948236" cy="31.709246" r="0.1" stroke="black" fill="red" stroke-width="0.2"/> 
<circle cx="17.937834" cy="30.984871" r="0.1" stroke="black" fill="red" stroke-width="0.2"/> 
<circle cx="17.677628" cy="34.705990" r="0.1" stroke="black" fill="red" stroke-width="0.2"/> 
<circle cx="14.689060" cy="35.126007" r="0.1" stroke="black" fill="red" stroke-width="0.2"/> 
<circle cx="25.977314" cy="24.117872" r="0.1" stroke="black" fill="red" stroke-width="0.2"/> 
<circle cx="11.399227" cy="35.298416" r="0.1" stroke="black" fill="red" stroke-width="0.2"/> 
<circle cx="26.616776" cy="34.592285" r="0.1" stroke="black" fill="red" stroke-width="0.2"/> 
<circle cx="19.617741" cy="14.228323" r="0.1" stroke="black" fill="red" stroke-width="0.2"/> 
<circle cx="18.995548" cy="32.837151" r="0.1" stroke="black" fill="red" stroke-width="0.2"/> 
<circle cx="14.295806" cy="27.301109" r="0.1" stroke="black" fill="red" stroke-width="0.2"/> 
<circle cx="23.750198" cy="34.592285" r="0.1" stroke="black" fill="red" stroke-width="0.2"/> 
<circle cx="16.618900" cy="15.281382" r="0.1" stroke="black" fill="red" stroke-width="0.2"/> 
<circle cx="17.346100" cy="11.521086" r="0.1" stroke="black" fill="red" stroke-width="0.2"/> 
<circle cx="13.557673" cy="14.227317" r="0.1" stroke="black" fill="red" stroke-width="0.2"/> 
<circle cx="21.719269" cy="34.457401" r="0.1" stroke="black" fill="red" stroke-width="0.2"/> 
<circle cx="11.408478" cy="14.723497" r="0.1" stroke="black" fill="red" stroke-width="0.2"/> 
<circle cx="19.293949" cy="16.838490" r="0.1" stroke="black" fill="red" stroke-width="0.2"/> 
<circle cx="11.279304" cy="28.594463" r="0.1" stroke="black" fill="red" stroke-width="0.2"/> 
<circle cx="11.823367" cy="37.703835" r="0.1" stroke="black" fill="red" stroke-width="0.2"/> 
<circle cx="23.330112" cy="14.043415" r="0.1" stroke="black" fill="red" stroke-width="0.2"/> 
<circle cx="14.813331" cy="10.117147" r="0.1" stroke="black" fill="red" stroke-width="0.2"/> 
<circle cx="28.134605" cy="17.406654" r="0.1" stroke="black" fill="red" stroke-width="0.2"/> 
<circle cx="13.284818" cy="25.506245" r="0.1" stroke="black" fill="red" stroke-width="0.2"/> 
<circle cx="14.743090" cy="33.059563" r="0.1" stroke="black" fill="red" stroke-width="0.2"/> 
<circle cx="11.627554" cy="26.755081" r="0.1" stroke="black" fill="red" stroke-width="0.2"/> 
<circle cx="33.420235" cy="31.149055" r="0.1" stroke="black" fill="red" stroke-width="0.2"/> 
<circle cx="19.358994" cy="36.858040" r="0.1" stroke="black" fill="red" stroke-width="0.2"/> 
<circle cx="15.096079" cy="37.113323" r="0.1" stroke="black" fill="red" stroke-width="0.2"/> 
<circle cx="10.919571" cy="24.248619" r="0.1" stroke="black" fill="red" stroke-width="0.2"/> 
<circle cx="10.448995" cy="16.878532" r="0.1" stroke="black" fill="red" stroke-width="0.2"/> 
<circle cx="22.260406" cy="38.307800" r="0.1" stroke="black" fill="red" stroke-width="0.2"/> 
<circle cx="13.618503" cy="16.489367" r="0.1" stroke="black" fill="red" stroke-width="0.2"/> 
<circle cx="15.651382" cy="30.693380" r="0.1" stroke="black" fill="red" stroke-width="0.2"/> 
<circle cx="14.912896" cy="22.569111" r="0.1" stroke="black" fill="red" stroke-width="0.2"/> 
<circle cx="24.735741" cy="36.648994" r="0.1" stroke="black" fill="red" stroke-width="0.2"/> 
<circle cx="18.314510" cy="39.366894" r="0.1" stroke="black" fill="red" stroke-width="0.2"/> 
<circle cx="27.423559" cy="22.140091" r="0.1" stroke="black" fill="red" stroke-width="0.2"/> 
<circle cx="10.589546" cy="21.256205" r="0.1" stroke="black" fill="red" stroke-width="0.2"/> 
<circle cx="20.595703" cy="39.510170" r="0.1" stroke="black" fill="red" stroke-width="0.2"/> 
<circle cx="25.602207" cy="26.756359" r="0.1" stroke="black" fill="red" stroke-width="0.2"/> 
<circle cx="29.139957" cy="29.267410" r="0.1" stroke="black" fill="red" stroke-width="0.2"/> 
<circle cx="10.311779" cy="31.312002" r="0.1" stroke="black" fill="red" stroke-width="0.2"/> 
<circle cx="12.689244" cy="11.153133" r="0.1" stroke="black" fill="red" stroke-width="0.2"/> 
<circle cx="32.828495" cy="29.203026" r="0.1" stroke="black" fill="red" stroke-width="0.2"/> 
<circle cx="29.775955" cy="21.725300" r="0.1" stroke="black" fill="red" stroke-width="0.2"/> 
<circle cx="12.677159" cy="32.551880" r="0.1" stroke="black" fill="red" stroke-width="0.2"/> 
<circle cx="13.720575" cy="39.314587" r="0.1" stroke="black" fill="red" stroke-width="0.2"/> 
<circle cx="30.199030" cy="19.331762" r="0.1" stroke="black" fill="red" stroke-width="0.2"/> 
<circle cx="35.917793" cy="29.973274" r="0.1" stroke="black" fill="red" stroke-width="0.2"/> 
<circle cx="15.386902" cy="12.354208" r="0.1" stroke="black" fill="red" stroke-width="0.2"/> 
<circle cx="33.427471" cy="21.597786" r="0.1" stroke="black" fill="red" stroke-width="0.2"/> 
<circle cx="32.421837" cy="23.659645" r="0.1" stroke="black" fill="red" stroke-width="0.2"/> 
<circle cx="28.821335" cy="23.772491" r="0.1" stroke="black" fill="red" stroke-width="0.2"/> 
<circle cx="29.499201" cy="15.546896" r="0.1" stroke="black" fill="red" stroke-width="0.2"/> 
<circle cx="12.806109" cy="22.716433" r="0.1" stroke="black" fill="red" stroke-width="0.2"/> 
<circle cx="34.182701" cy="26.426487" r="0.1" stroke="black" fill="red" stroke-width="0.2"/> 
<circle cx="32.179291" cy="17.221601" r="0.1" stroke="black" fill="red" stroke-width="0.2"/> 
<circle cx="20.599262" cy="11.798976" r="0.1" stroke="black" fill="red" stroke-width="0.2"/> 
<circle cx="36.148335" cy="27.654959" r="0.1" stroke="black" fill="red" stroke-width="0.2"/> 
<circle cx="26.621180" cy="13.378153" r="0.1" stroke="black" fill="red" stroke-width="0.2"/> 
<circle cx="33.077461" cy="19.029226" r="0.1" stroke="black" fill="red" stroke-width="0.2"/> 
<circle cx="34.737579" cy="32.647110" r="0.1" stroke="black" fill="red" stroke-width="0.2"/> 
<circle cx="35.940933" cy="16.540047" r="0.1" stroke="black" fill="red" stroke-width="0.2"/> 
<circle cx="34.629395" cy="24.169300" r="0.1" stroke="black" fill="red" stroke-width="0.2"/> 
<circle cx="30.824518" cy="26.309217" r="0.1" stroke="black" fill="red" stroke-width="0.2"/> 
<circle cx="36.878906" cy="25.751760" r="0.1" stroke="black" fill="red" stroke-width="0.2"/> 
<circle cx="36.331635" cy="33.910732" r="0.1" stroke="black" fill="red" stroke-width="0.2"/> 
<circle cx="35.139114" cy="20.317490" r="0.1" stroke="black" fill="red" stroke-width="0.2"/> 
<circle cx="24.036209" cy="10.404483" r="0.1" stroke="black" fill="red" stroke-width="0.2"/> 
<circle cx="26.576580" cy="10.822994" r="0.1" stroke="black" fill="red" stroke-width="0.2"/> 
<circle cx="33.426788" cy="35.587845" r="0.1" stroke="black" fill="red" stroke-width="0.2"/> 
<circle cx="30.660286" cy="34.413536" r="0.1" stroke="black" fill="red" stroke-width="0.2"/> 
<circle cx="31.283260" cy="21.244881" r="0.1" stroke="black" fill="red" stroke-width="0.2"/> 
<circle cx="30.852236" cy="38.076145" r="0.1" stroke="black" fill="red" stroke-width="0.2"/> 
<circle cx="38.068466" cy="28.470005" r="0.1" stroke="black" fill="red" stroke-width="0.2"/> 
<circle cx="28.517969" cy="12.238445" r="0.1" stroke="black" fill="red" stroke-width="0.2"/> 
<circle cx="38.623024" cy="33.950729" r="0.1" stroke="black" fill="red" stroke-width="0.2"/> 
<circle cx="32.053398" cy="14.072227" r="0.1" stroke="black" fill="red" stroke-width="0.2"/> 
<circle cx="36.557030" cy="23.130318" r="0.1" stroke="black" fill="red" stroke-width="0.2"/> 
<circle cx="31.851366" cy="11.182998" r="0.1" stroke="black" fill="red" stroke-width="0.2"/> 
<circle cx="38.661530" cy="20.531477" r="0.1" stroke="black" fill="red" stroke-width="0.2"/> 
<circle cx="39.091808" cy="23.352081" r="0.1" stroke="black" fill="red" stroke-width="0.2"/> 
<circle cx="29.158199" cy="36.933502" r="0.1" stroke="black" fill="red" stroke-width="0.2"/> 
<circle cx="39.917603" cy="27.314533" r="0.1" stroke="black" fill="red" stroke-width="0.2"/> 
<circle cx="33.536598" cy="12.597076" r="0.1" stroke="black" fill="red" stroke-width="0.2"/> 
<circle cx="38.500774" cy="30.503868" r="0.1" stroke="black" fill="red" stroke-width="0.2"/> 
<circle cx="35.925674" cy="14.269923" r="0.1" stroke="black" fill="red" stroke-width="0.2"/> 
<circle cx="37.890327" cy="17.367514" r="0.1" stroke="black" fill="red" stroke-width="0.2"/> 
<circle cx="39.766586" cy="16.673641" r="0.1" stroke="black" fill="red" stroke-width="0.2"/> 
<circle cx="37.647526" cy="11.163618" r="0.1" stroke="black" fill="red" stroke-width="0.2"/> 
<circle cx="37.774956" cy="35.948654" r="0.1" stroke="black" fill="red" stroke-width="0.2"/> 
<circle cx="36.683708" cy="37.695015" r="0.1" stroke="black" fill="red" stroke-width="0.2"/> 
<circle cx="39.394630" cy="10.154928" r="0.1" stroke="black" fill="red" stroke-width="0.2"/> 
<circle cx="38.030746" cy="14.417124" r="0.1" stroke="black" fill="red" stroke-width="0.2"/> 
</svg>
