<?xml version="1.0" standalone="no"?> 
<svg width="150pt" height= "150pt" version="1.1" xmlns="http://www.w3.org/2000/svg">
<style type = "text/css">
.st1{fill:#ff0000;stroke:#000000;stroke-miterlimit:5.000000;}
.st2{fill:#ff0000;stroke:#000000;stroke-miterlimit:5.000000;}
.st3{fill:#008000;stroke:#008000;stroke-miterlimit:5.000000;}
.st4{fill:#0000ff;stroke:#0000ff;stroke-miterlimit:5.000000;}
</style> 
<path class="st1" d = "M 10.000000,10.000000 C 16.666666,10.000000,23.333334,10.000000,30.000000,10.000000 C 30.000000,16.666666,30.000000,23.333334,30.000000,30.000000 C 23.333334,30.000000,16.666666,30.000000,10.000000,30.000000 C 10.000000,23.333334,10.000000,16.666666,10.000000,10.000000z"/> 
<path class="st2" d = "M 46.000000,7.000000 C 46.000000,7.000000,46.000000,7.000000,46.000000,7.000000 C 51.522850,7.000000,56.000000,11.477152,56.000000,17.000000 C 56.000000,17.000000,56.000000,17.000000,56.000000,17.000000 C 56.000000,22.522848,51.522850,27.000000,46.000000,27.000000 C 46.000000,27.000000,46.000000,27.000000,46.000000,27.000000 C 40.477150,27.000000,36.000000,22.522848,36.000000,17.000000 C 36.000000,17.000000,36.000000,17.000000,36.000000,17.000000 C 36.000000,11.477152,40.477150,7.000000,46.000000,7.000000 C 46.000000,7.000000,46.000000,7.000000,46.000000,7.000000z"/> 
<path class="st3" d = "M 55.000000,121.000000 C 55.000000,132.045685,46.045696,141.000000,35.000000,141.000000 C 23.954304,141.000000,15.000000,132.045685,15.000000,121.000000 C 15.000000,109.954300,23.954304,101.000000,35.000000,101.000000 C 46.045696,101.000000,55.000000,109.954300,55.000000,121.000000 C 55.000000,121.000000,55.000000,121.000000,55.000000,121.000000z"/> 
<path class="st2" d = "M 119.000000,-66.000000 C 119.000000,-66.000000,119.000000,-66.000000,119.000000,-66.000000 C 124.522850,-66.000000,129.000000,-61.522850,129.000000,-56.000000 C 129.000000,-56.000000,129.000000,-56.000000,129.000000,-56.000000 C 129.000000,-50.477150,124.522850,-46.000000,119.000000,-46.000000 C 119.000000,-46.000000,119.000000,-46.000000,119.000000,-46.000000 C 113.477150,-46.000000,109.000000,-50.477150,109.000000,-56.000000 C 109.000000,-56.000000,109.000000,-56.000000,109.000000,-56.000000 C 109.000000,-61.522850,113.477150,-66.000000,119.000000,-66.000000 C 119.000000,-66.000000,119.000000,-66.000000,119.000000,-66.000000z"/> 
<path class="st1" d = "M 10.000000,10.000000 C 16.666666,10.000000,23.333334,10.000000,30.000000,10.000000 C 30.000000,16.666666,30.000000,23.333334,30.000000,30.000000 C 23.333334,30.000000,16.666666,30.000000,10.000000,30.000000 C 10.000000,23.333334,10.000000,16.666666,10.000000,10.000000z"/> 
<path class="st1" d = "M 10.000000,10.000000 C 16.666666,10.000000,23.333334,10.000000,30.000000,10.000000 C 30.000000,16.666666,30.000000,23.333334,30.000000,30.000000 C 23.333334,30.000000,16.666666,30.000000,10.000000,30.000000 C 10.000000,23.333334,10.000000,16.666666,10.000000,10.000000z"/> 
<path class="st1" d = "M 10.000000,10.000000 C 16.666666,10.000000,23.333334,10.000000,30.000000,10.000000 C 30.000000,16.666666,30.000000,23.333334,30.000000,30.000000 C 23.333334,30.000000,16.666666,30.000000,10.000000,30.000000 C 10.000000,23.333334,10.000000,16.666666,10.000000,10.000000z"/> 
<path class="st1" d = "M 10.000000,10.000000 C 16.666666,10.000000,23.333334,10.000000,30.000000,10.000000 C 30.000000,16.666666,30.000000,23.333334,30.000000,30.000000 C 23.333334,30.000000,16.666666,30.000000,10.000000,30.000000 C 10.000000,23.333334,10.000000,16.666666,10.000000,10.000000z"/> 
<path class="st1" d = "M 10.000000,10.000000 C 16.666666,10.000000,23.333334,10.000000,30.000000,10.000000 C 30.000000,16.666666,30.000000,23.333334,30.000000,30.000000 C 23.333334,30.000000,16.666666,30.000000,10.000000,30.000000 C 10.000000,23.333334,10.000000,16.666666,10.000000,10.000000z"/> 
<path class="st2" d = "M 97.000000,-106.000000 C 97.000000,-106.000000,97.000000,-106.000000,97.000000,-106.000000 C 102.522850,-106.000000,107.000000,-101.522850,107.000000,-96.000000 C 107.000000,-96.000000,107.000000,-96.000000,107.000000,-96.000000 C 107.000000,-90.477150,102.522850,-86.000000,97.000000,-86.000000 C 97.000000,-86.000000,97.000000,-86.000000,97.000000,-86.000000 C 91.477150,-86.000000,87.000000,-90.477150,87.000000,-96.000000 C 87.000000,-96.000000,87.000000,-96.000000,87.000000,-96.000000 C 87.000000,-101.522850,91.477150,-106.000000,97.000000,-106.000000 C 97.000000,-106.000000,97.000000,-106.000000,97.000000,-106.000000z"/> 
<path class="st2" d = "M 28.000000,-90.000000 C 28.000000,-90.000000,28.000000,-90.000000,28.000000,-90.000000 C 33.522850,-90.000000,38.000000,-85.522850,38.000000,-80.000000 C 38.000000,-80.000000,38.000000,-80.000000,38.000000,-80.000000 C 38.000000,-74.477150,33.522850,-70.000000,28.000000,-70.000000 C 28.000000,-70.000000,28.000000,-70.000000,28.000000,-70.000000 C 22.477150,-70.000000,18.000000,-74.477150,18.000000,-80.000000 C 18.000000,-80.000000,18.000000,-80.000000,18.000000,-80.000000 C 18.000000,-85.522850,22.477150,-90.000000,28.000000,-90.000000 C 28.000000,-90.000000,28.000000,-90.000000,28.000000,-90.000000z"/> 
<path class="st2" d = "M 87.000000,-95.000000 C 87.000000,-95.000000,87.000000,-95.000000,87.000000,-95.000000 C 92.522850,-95.000000,97.000000,-90.522850,97.000000,-85.000000 C 97.000000,-85.000000,97.000000,-85.000000,97.000000,-85.000000 C 97.000000,-79.477150,92.522850,-75.000000,87.000000,-75.000000 C 87.000000,-75.000000,87.000000,-75.000000,87.000000,-75.000000 C 81.477150,-75.000000,77.000000,-79.477150,77.000000,-85.000000 C 77.000000,-85.000000,77.000000,-85.000000,77.000000,-85.000000 C 77.000000,-90.522850,81.477150,-95.000000,87.000000,-95.000000 C 87.000000,-95.000000,87.000000,-95.000000,87.000000,-95.000000z"/> 
<path class="st4" d = "M 32.000000,113.000000 C 32.000000,115.761421,23.045692,118.000000,12.000000,118.000000 C 0.954304,118.000000,-8.000000,115.761421,-8.000000,113.000000 C -8.000000,110.238579,0.954304,108.000000,12.000000,108.000000 C 23.045692,108.000000,32.000000,110.238579,32.000000,113.000000 C 32.000000,113.000000,32.000000,113.000000,32.000000,113.000000z"/> 
<path class="st4" d = "M 47.000000,134.000000 C 47.000000,136.761414,38.045692,139.000000,27.000000,139.000000 C 15.954304,139.000000,7.000000,136.761414,7.000000,134.000000 C 7.000000,131.238586,15.954304,129.000000,27.000000,129.000000 C 38.045692,129.000000,47.000000,131.238586,47.000000,134.000000 C 47.000000,134.000000,47.000000,134.000000,47.000000,134.000000z"/> 
<path class="st4" d = "M 141.000000,97.000000 C 141.000000,99.761421,132.045685,102.000000,121.000000,102.000000 C 109.954300,102.000000,101.000000,99.761421,101.000000,97.000000 C 101.000000,94.238579,109.954300,92.000000,121.000000,92.000000 C 132.045685,92.000000,141.000000,94.238579,141.000000,97.000000 C 141.000000,97.000000,141.000000,97.000000,141.000000,97.000000z"/> 
<path class="st4" d = "M 70.000000,101.000000 C 70.000000,103.761421,61.045692,106.000000,50.000000,106.000000 C 38.954304,106.000000,30.000000,103.761421,30.000000,101.000000 C 30.000000,98.238579,38.954304,96.000000,50.000000,96.000000 C 61.045692,96.000000,70.000000,98.238579,70.000000,101.000000 C 70.000000,101.000000,70.000000,101.000000,70.000000,101.000000z"/> 
<path class="st2" d = "M 130.000000,14.000000 C 130.000000,14.000000,130.000000,14.000000,130.000000,14.000000 C 135.522858,14.000000,140.000000,18.477152,140.000000,24.000000 C 140.000000,24.000000,140.000000,24.000000,140.000000,24.000000 C 140.000000,29.522848,135.522858,34.000000,130.000000,34.000000 C 130.000000,34.000000,130.000000,34.000000,130.000000,34.000000 C 124.477150,34.000000,120.000000,29.522848,120.000000,24.000000 C 120.000000,24.000000,120.000000,24.000000,120.000000,24.000000 C 120.000000,18.477152,124.477150,14.000000,130.000000,14.000000 C 130.000000,14.000000,130.000000,14.000000,130.000000,14.000000z"/> 
<path class="st1" d = "M 10.000000,10.000000 C 16.666666,10.000000,23.333334,10.000000,30.000000,10.000000 C 30.000000,16.666666,30.000000,23.333334,30.000000,30.000000 C 23.333334,30.000000,16.666666,30.000000,10.000000,30.000000 C 10.000000,23.333334,10.000000,16.666666,10.000000,10.000000z"/> 
<path class="st1" d = "M 10.000000,10.000000 C 16.666666,10.000000,23.333334,10.000000,30.000000,10.000000 C 30.000000,16.666666,30.000000,23.333334,30.000000,30.000000 C 23.333334,30.000000,16.666666,30.000000,10.000000,30.000000 C 10.000000,23.333334,10.000000,16.666666,10.000000,10.000000z"/> 
<path class="st1" d = "M 10.000000,10.000000 C 16.666666,10.000000,23.333334,10.000000,30.000000,10.000000 C 30.000000,16.666666,30.000000,23.333334,30.000000,30.000000 C 23.333334,30.000000,16.666666,30.000000,10.000000,30.000000 C 10.000000,23.333334,10.000000,16.666666,10.000000,10.000000z"/> 
<path class="st4" d = "M 189.000000,51.000000 C 189.000000,53.761421,180.045685,56.000000,169.000000,56.000000 C 157.954300,56.000000,149.000000,53.761421,149.000000,51.000000 C 149.000000,48.238579,157.954300,46.000000,169.000000,46.000000 C 180.045685,46.000000,189.000000,48.238579,189.000000,51.000000 C 189.000000,51.000000,189.000000,51.000000,189.000000,51.000000z"/> 
<path class="st4" d = "M 39.000000,106.000000 C 39.000000,108.761421,30.045692,111.000000,19.000000,111.000000 C 7.954304,111.000000,-1.000000,108.761421,-1.000000,106.000000 C -1.000000,103.238579,7.954304,101.000000,19.000000,101.000000 C 30.045692,101.000000,39.000000,103.238579,39.000000,106.000000 C 39.000000,106.000000,39.000000,106.000000,39.000000,106.000000z"/> 
<path class="st1" d = "M 10.000000,10.000000 C 16.666666,10.000000,23.333334,10.000000,30.000000,10.000000 C 30.000000,16.666666,30.000000,23.333334,30.000000,30.000000 C 23.333334,30.000000,16.666666,30.000000,10.000000,30.000000 C 10.000000,23.333334,10.000000,16.666666,10.000000,10.000000z"/> 
<path class="st2" d = "M 47.000000,-41.000000 C 47.000000,-41.000000,47.000000,-41.000000,47.000000,-41.000000 C 52.522850,-41.000000,57.000000,-36.522850,57.000000,-31.000000 C 57.000000,-31.000000,57.000000,-31.000000,57.000000,-31.000000 C 57.000000,-25.477152,52.522850,-21.000000,47.000000,-21.000000 C 47.000000,-21.000000,47.000000,-21.000000,47.000000,-21.000000 C 41.477150,-21.000000,37.000000,-25.477152,37.000000,-31.000000 C 37.000000,-31.000000,37.000000,-31.000000,37.000000,-31.000000 C 37.000000,-36.522850,41.477150,-41.000000,47.000000,-41.000000 C 47.000000,-41.000000,47.000000,-41.000000,47.000000,-41.000000z"/> 
<path class="st4" d = "M 156.000000,146.000000 C 156.000000,148.761414,147.045685,151.000000,136.000000,151.000000 C 124.954300,151.000000,116.000000,148.761414,116.000000,146.000000 C 116.000000,143.238586,124.954300,141.000000,136.000000,141.000000 C 147.045685,141.000000,156.000000,143.238586,156.000000,146.000000 C 156.000000,146.000000,156.000000,146.000000,156.000000,146.000000z"/> 
<path class="st2" d = "M -2.000000,-83.000000 C -2.000000,-83.000000,-2.000000,-83.000000,-2.000000,-83.000000 C 3.522850,-83.000000,8.000000,-78.522850,8.000000,-73.000000 C 8.000000,-73.000000,8.000000,-73.000000,8.000000,-73.000000 C 8.000000,-67.477150,3.522850,-63.000000,-2.000000,-63.000000 C -2.000000,-63.000000,-2.000000,-63.000000,-2.000000,-63.000000 C -7.522850,-63.000000,-12.000000,-67.477150,-12.000000,-73.000000 C -12.000000,-73.000000,-12.000000,-73.000000,-12.000000,-73.000000 C -12.000000,-78.522850,-7.522850,-83.000000,-2.000000,-83.000000 C -2.000000,-83.000000,-2.000000,-83.000000,-2.000000,-83.000000z"/> 
<path class="st1" d = "M 10.000000,10.000000 C 16.666666,10.000000,23.333334,10.000000,30.000000,10.000000 C 30.000000,16.666666,30.000000,23.333334,30.000000,30.000000 C 23.333334,30.000000,16.666666,30.000000,10.000000,30.000000 C 10.000000,23.333334,10.000000,16.666666,10.000000,10.000000z"/> 
<path class="st2" d = "M 145.000000,7.000000 C 145.000000,7.000000,145.000000,7.000000,145.000000,7.000000 C 150.522858,7.000000,155.000000,11.477152,155.000000,17.000000 C 155.000000,17.000000,155.000000,17.000000,155.000000,17.000000 C 155.000000,22.522848,150.522858,27.000000,145.000000,27.000000 C 145.000000,27.000000,145.000000,27.000000,145.000000,27.000000 C 139.477142,27.000000,135.000000,22.522848,135.000000,17.000000 C 135.000000,17.000000,135.000000,17.000000,135.000000,17.000000 C 135.000000,11.477152,139.477142,7.000000,145.000000,7.000000 C 145.000000,7.000000,145.000000,7.000000,145.000000,7.000000z"/> 
<path class="st4" d = "M 104.000000,108.000000 C 104.000000,110.761421,95.045692,113.000000,84.000000,113.000000 C 72.954300,113.000000,64.000000,110.761421,64.000000,108.000000 C 64.000000,105.238579,72.954300,103.000000,84.000000,103.000000 C 95.045692,103.000000,104.000000,105.238579,104.000000,108.000000 C 104.000000,108.000000,104.000000,108.000000,104.000000,108.000000z"/> 
<path class="st4" d = "M 107.000000,71.000000 C 107.000000,73.761421,98.045692,76.000000,87.000000,76.000000 C 75.954300,76.000000,67.000000,73.761421,67.000000,71.000000 C 67.000000,68.238579,75.954300,66.000000,87.000000,66.000000 C 98.045692,66.000000,107.000000,68.238579,107.000000,71.000000 C 107.000000,71.000000,107.000000,71.000000,107.000000,71.000000z"/> 
<path class="st1" d = "M 10.000000,10.000000 C 16.666666,10.000000,23.333334,10.000000,30.000000,10.000000 C 30.000000,16.666666,30.000000,23.333334,30.000000,30.000000 C 23.333334,30.000000,16.666666,30.000000,10.000000,30.000000 C 10.000000,23.333334,10.000000,16.666666,10.000000,10.000000z"/> 
<path class="st2" d = "M 26.000000,-3.000000 C 26.000000,-3.000000,26.000000,-3.000000,26.000000,-3.000000 C 31.522850,-3.000000,36.000000,1.477152,36.000000,7.000000 C 36.000000,7.000000,36.000000,7.000000,36.000000,7.000000 C 36.000000,12.522848,31.522850,17.000000,26.000000,17.000000 C 26.000000,17.000000,26.000000,17.000000,26.000000,17.000000 C 20.477150,17.000000,16.000000,12.522848,16.000000,7.000000 C 16.000000,7.000000,16.000000,7.000000,16.000000,7.000000 C 16.000000,1.477152,20.477150,-3.000000,26.000000,-3.000000 C 26.000000,-3.000000,26.000000,-3.000000,26.000000,-3.000000z"/> 
<path class="st1" d = "M 10.000000,10.000000 C 16.666666,10.000000,23.333334,10.000000,30.000000,10.000000 C 30.000000,16.666666,30.000000,23.333334,30.000000,30.000000 C 23.333334,30.000000,16.666666,30.000000,10.000000,30.000000 C 10.000000,23.333334,10.000000,16.666666,10.000000,10.000000z"/> 
<path class="st4" d = "M 49.000000,39.000000 C 49.000000,41.761421,40.045692,44.000000,29.000000,44.000000 C 17.954304,44.000000,9.000000,41.761421,9.000000,39.000000 C 9.000000,36.238579,17.954304,34.000000,29.000000,34.000000 C 40.045692,34.000000,49.000000,36.238579,49.000000,39.000000 C 49.000000,39.000000,49.000000,39.000000,49.000000,39.000000z"/> 
<path class="st1" d = "M 10.000000,10.000000 C 16.666666,10.000000,23.333334,10.000000,30.000000,10.000000 C 30.000000,16.666666,30.000000,23.333334,30.000000,30.000000 C 23.333334,30.000000,16.666666,30.000000,10.000000,30.000000 C 10.000000,23.333334,10.000000,16.666666,10.000000,10.000000z"/> 
<path class="st2" d = "M 137.000000,-121.000000 C 137.000000,-121.000000,137.000000,-121.000000,137.000000,-121.000000 C 142.522858,-121.000000,147.000000,-116.522850,147.000000,-111.000000 C 147.000000,-111.000000,147.000000,-111.000000,147.000000,-111.000000 C 147.000000,-105.477150,142.522858,-101.000000,137.000000,-101.000000 C 137.000000,-101.000000,137.000000,-101.000000,137.000000,-101.000000 C 131.477142,-101.000000,127.000000,-105.477150,127.000000,-111.000000 C 127.000000,-111.000000,127.000000,-111.000000,127.000000,-111.000000 C 127.000000,-116.522850,131.477142,-121.000000,137.000000,-121.000000 C 137.000000,-121.000000,137.000000,-121.000000,137.000000,-121.000000z"/> 
<path class="st4" d = "M 140.000000,21.000000 C 140.000000,23.761421,131.045685,26.000000,120.000000,26.000000 C 108.954300,26.000000,100.000000,23.761421,100.000000,21.000000 C 100.000000,18.238579,108.954300,16.000000,120.000000,16.000000 C 131.045685,16.000000,140.000000,18.238579,140.000000,21.000000 C 140.000000,21.000000,140.000000,21.000000,140.000000,21.000000z"/> 
<path class="st4" d = "M 146.000000,22.000000 C 146.000000,24.761421,137.045685,27.000000,126.000000,27.000000 C 114.954300,27.000000,106.000000,24.761421,106.000000,22.000000 C 106.000000,19.238579,114.954300,17.000000,126.000000,17.000000 C 137.045685,17.000000,146.000000,19.238579,146.000000,22.000000 C 146.000000,22.000000,146.000000,22.000000,146.000000,22.000000z"/> 
<path class="st1" d = "M 10.000000,10.000000 C 16.666666,10.000000,23.333334,10.000000,30.000000,10.000000 C 30.000000,16.666666,30.000000,23.333334,30.000000,30.000000 C 23.333334,30.000000,16.666666,30.000000,10.000000,30.000000 C 10.000000,23.333334,10.000000,16.666666,10.000000,10.000000z"/> 
<path class="st1" d = "M 10.000000,10.000000 C 16.666666,10.000000,23.333334,10.000000,30.000000,10.000000 C 30.000000,16.666666,30.000000,23.333334,30.000000,30.000000 C 23.333334,30.000000,16.666666,30.000000,10.000000,30.000000 C 10.000000,23.333334,10.000000,16.666666,10.000000,10.000000z"/> 
<path class="st1" d = "M 10.000000,10.000000 C 16.666666,10.000000,23.333334,10.000000,30.000000,10.000000 C 30.000000,16.666666,30.000000,23.333334,30.000000,30.000000 C 23.333334,30.000000,16.666666,30.000000,10.000000,30.000000 C 10.000000,23.333334,10.000000,16.666666,10.000000,10.000000z"/> 
<path class="st4" d = "M 68.000000,129.000000 C 68.000000,131.761414,59.045692,134.000000,48.000000,134.000000 C 36.954304,134.000000,28.000000,131.761414,28.000000,129.000000 C 28.000000,126.238579,36.954304,124.000000,48.000000,124.000000 C 59.045692,124.000000,68.000000,126.238579,68.000000,129.000000 C 68.000000,129.000000,68.000000,129.000000,68.000000,129.000000z"/> 
<path class="st2" d = "M 74.000000,-23.000000 C 74.000000,-23.000000,74.000000,-23.000000,74.000000,-23.000000 C 79.522850,-23.000000,84.000000,-18.522848,84.000000,-13.000000 C 84.000000,-13.000000,84.000000,-13.000000,84.000000,-13.000000 C 84.000000,-7.477152,79.522850,-3.000000,74.000000,-3.000000 C 74.000000,-3.000000,74.000000,-3.000000,74.000000,-3.000000 C 68.477150,-3.000000,64.000000,-7.477152,64.000000,-13.000000 C 64.000000,-13.000000,64.000000,-13.000000,64.000000,-13.000000 C 64.000000,-18.522848,68.477150,-23.000000,74.000000,-23.000000 C 74.000000,-23.000000,74.000000,-23.000000,74.000000,-23.000000z"/> 
<path class="st1" d = "M 10.000000,10.000000 C 16.666666,10.000000,23.333334,10.000000,30.000000,10.000000 C 30.000000,16.666666,30.000000,23.333334,30.000000,30.000000 C 23.333334,30.000000,16.666666,30.000000,10.000000,30.000000 C 10.000000,23.333334,10.000000,16.666666,10.000000,10.000000z"/> 
<path class="st1" d = "M 10.000000,10.000000 C 16.666666,10.000000,23.333334,10.000000,30.000000,10.000000 C 30.000000,16.666666,30.000000,23.333334,30.000000,30.000000 C 23.333334,30.000000,16.666666,30.000000,10.000000,30.000000 C 10.000000,23.333334,10.000000,16.666666,10.000000,10.000000z"/> 
<path class="st1" d = "M 10.000000,10.000000 C 16.666666,10.000000,23.333334,10.000000,30.000000,10.000000 C 30.000000,16.666666,30.000000,23.333334,30.000000,30.000000 C 23.333334,30.000000,16.666666,30.000000,10.000000,30.000000 C 10.000000,23.333334,10.000000,16.666666,10.000000,10.000000z"/> 
<path class="st1" d = "M 10.000000,10.000000 C 16.666666,10.000000,23.333334,10.000000,30.000000,10.000000 C 30.000000,16.666666,30.000000,23.333334,30.000000,30.000000 C 23.333334,30.000000,16.666666,30.000000,10.000000,30.000000 C 10.000000,23.333334,10.000000,16.666666,10.000000,10.000000z"/> 
</svg>
