<?xml version="1.0" standalone="no"?> 
<svg width="200pt" height= "250pt" version="1.1" xmlns="http://www.w3.org/2000/svg">
<style type = "text/css">
.st1{fill:#000000;stroke:#000000;stroke-miterlimit:5.000000;}
.st2{fill:#ff0000;stroke:#ff0000;stroke-miterlimit:5.000000;}
.st3{fill:#008000;stroke:#008000;stroke-miterlimit:5.000000;}
.st4{fill:#0000ff;stroke:#0000ff;stroke-miterlimit:5.000000;}
</style> 
<path class="st1" d = "M 10.000000,10.000000 C 16.666666,10.000000,23.333334,10.000000,30.000000,10.000000 C 30.000000,16.666666,30.000000,23.333334,30.000000,30.000000 C 23.333334,30.000000,16.666666,30.000000,10.000000,30.000000 C 10.000000,23.333334,10.000000,16.666666,10.000000,10.000000z"/> 
<path class="st2" d = "M 70.000000,10.000000 C 70.000000,10.000000,70.000000,10.000000,70.000000,10.000000 C 75.522850,10.000000,80.000000,14.477152,80.000000,20.000000 C 80.000000,20.000000,80.000000,20.000000,80.000000,20.000000 C 80.000000,25.522848,75.522850,30.000000,70.000000,30.000000 C 70.000000,30.000000,70.000000,30.000000,70.000000,30.000000 C 64.477150,30.000000,60.000000,25.522848,60.000000,20.000000 C 60.000000,20.000000,60.000000,20.000000,60.000000,20.000000 C 60.000000,14.477152,64.477150,10.000000,70.000000,10.000000 C 70.000000,10.000000,70.000000,10.000000,70.000000,10.000000z"/> 
<path class="st3" d = "M 45.000000,75.000000 C 45.000000,86.045692,36.045696,95.000000,25.000000,95.000000 C 13.954305,95.000000,5.000000,86.045692,5.000000,75.000000 C 5.000000,63.954304,13.954305,55.000000,25.000000,55.000000 C 36.045696,55.000000,45.000000,63.954304,45.000000,75.000000 C 45.000000,75.000000,45.000000,75.000000,45.000000,75.000000z"/> 
<path class="st2" d = "M 70.000000,10.000000 C 70.000000,10.000000,70.000000,10.000000,70.000000,10.000000 C 75.522850,10.000000,80.000000,14.477152,80.000000,20.000000 C 80.000000,20.000000,80.000000,20.000000,80.000000,20.000000 C 80.000000,25.522848,75.522850,30.000000,70.000000,30.000000 C 70.000000,30.000000,70.000000,30.000000,70.000000,30.000000 C 64.477150,30.000000,60.000000,25.522848,60.000000,20.000000 C 60.000000,20.000000,60.000000,20.000000,60.000000,20.000000 C 60.000000,14.477152,64.477150,10.000000,70.000000,10.000000 C 70.000000,10.000000,70.000000,10.000000,70.000000,10.000000z"/> 
<path class="st1" d = "M 10.000000,10.000000 C 16.666666,10.000000,23.333334,10.000000,30.000000,10.000000 C 30.000000,16.666666,30.000000,23.333334,30.000000,30.000000 C 23.333334,30.000000,16.666666,30.000000,10.000000,30.000000 C 10.000000,23.333334,10.000000,16.666666,10.000000,10.000000z"/> 
<path class="st1" d = "M 10.000000,10.000000 C 16.666666,10.000000,23.333334,10.000000,30.000000,10.000000 C 30.000000,16.666666,30.000000,23.333334,30.000000,30.000000 C 23.333334,30.000000,16.666666,30.000000,10.000000,30.000000 C 10.000000,23.333334,10.000000,16.666666,10.000000,10.000000z"/> 
<path class="st1" d = "M 10.000000,10.000000 C 16.666666,10.000000,23.333334,10.000000,30.000000,10.000000 C 30.000000,16.666666,30.000000,23.333334,30.000000,30.000000 C 23.333334,30.000000,16.666666,30.000000,10.000000,30.000000 C 10.000000,23.333334,10.000000,16.666666,10.000000,10.000000z"/> 
<path class="st1" d = "M 10.000000,10.000000 C 16.666666,10.000000,23.333334,10.000000,30.000000,10.000000 C 30.000000,16.666666,30.000000,23.333334,30.000000,30.000000 C 23.333334,30.000000,16.666666,30.000000,10.000000,30.000000 C 10.000000,23.333334,10.000000,16.666666,10.000000,10.000000z"/> 
<path class="st1" d = "M 10.000000,10.000000 C 16.666666,10.000000,23.333334,10.000000,30.000000,10.000000 C 30.000000,16.666666,30.000000,23.333334,30.000000,30.000000 C 23.333334,30.000000,16.666666,30.000000,10.000000,30.000000 C 10.000000,23.333334,10.000000,16.666666,10.000000,10.000000z"/> 
<path class="st2" d = "M 70.000000,10.000000 C 70.000000,10.000000,70.000000,10.000000,70.000000,10.000000 C 75.522850,10.000000,80.000000,14.477152,80.000000,20.000000 C 80.000000,20.000000,80.000000,20.000000,80.000000,20.000000 C 80.000000,25.522848,75.522850,30.000000,70.000000,30.000000 C 70.000000,30.000000,70.000000,30.000000,70.000000,30.000000 C 64.477150,30.000000,60.000000,25.522848,60.000000,20.000000 C 60.000000,20.000000,60.000000,20.000000,60.000000,20.000000 C 60.000000,14.477152,64.477150,10.000000,70.000000,10.000000 C 70.000000,10.000000,70.000000,10.000000,70.000000,10.000000z"/> 
<path class="st2" d = "M 70.000000,10.000000 C 70.000000,10.000000,70.000000,10.000000,70.000000,10.000000 C 75.522850,10.000000,80.000000,14.477152,80.000000,20.000000 C 80.000000,20.000000,80.000000,20.000000,80.000000,20.000000 C 80.000000,25.522848,75.522850,30.000000,70.000000,30.000000 C 70.000000,30.000000,70.000000,30.000000,70.000000,30.000000 C 64.477150,30.000000,60.000000,25.522848,60.000000,20.000000 C 60.000000,20.000000,60.000000,20.000000,60.000000,20.000000 C 60.000000,14.477152,64.477150,10.000000,70.000000,10.000000 C 70.000000,10.000000,70.000000,10.000000,70.000000,10.000000z"/> 
<path class="st2" d = "M 70.000000,10.000000 C 70.000000,10.000000,70.000000,10.000000,70.000000,10.000000 C 75.522850,10.000000,80.000000,14.477152,80.000000,20.000000 C 80.000000,20.000000,80.000000,20.000000,80.000000,20.000000 C 80.000000,25.522848,75.522850,30.000000,70.000000,30.000000 C 70.000000,30.000000,70.000000,30.000000,70.000000,30.000000 C 64.477150,30.000000,60.000000,25.522848,60.000000,20.000000 C 60.000000,20.000000,60.000000,20.000000,60.000000,20.000000 C 60.000000,14.477152,64.477150,10.000000,70.000000,10.000000 C 70.000000,10.000000,70.000000,10.000000,70.000000,10.000000z"/> 
<path class="st4" d = "M 95.000000,75.000000 C 95.000000,77.761421,86.045692,80.000000,75.000000,80.000000 C 63.954304,80.000000,55.000000,77.761421,55.000000,75.000000 C 55.000000,72.238579,63.954304,70.000000,75.000000,70.000000 C 86.045692,70.000000,95.000000,72.238579,95.000000,75.000000 C 95.000000,75.000000,95.000000,75.000000,95.000000,75.000000z"/> 
<path class="st4" d = "M 95.000000,75.000000 C 95.000000,77.761421,86.045692,80.000000,75.000000,80.000000 C 63.954304,80.000000,55.000000,77.761421,55.000000,75.000000 C 55.000000,72.238579,63.954304,70.000000,75.000000,70.000000 C 86.045692,70.000000,95.000000,72.238579,95.000000,75.000000 C 95.000000,75.000000,95.000000,75.000000,95.000000,75.000000z"/> 
<path class="st4" d = "M 95.000000,75.000000 C 95.000000,77.761421,86.045692,80.000000,75.000000,80.000000 C 63.954304,80.000000,55.000000,77.761421,55.000000,75.000000 C 55.000000,72.238579,63.954304,70.000000,75.000000,70.000000 C 86.045692,70.000000,95.000000,72.238579,95.000000,75.000000 C 95.000000,75.000000,95.000000,75.000000,95.000000,75.000000z"/> 
<path class="st4" d = "M 95.000000,75.000000 C 95.000000,77.761421,86.045692,80.000000,75.000000,80.000000 C 63.954304,80.000000,55.000000,77.761421,55.000000,75.000000 C 55.000000,72.238579,63.954304,70.000000,75.000000,70.000000 C 86.045692,70.000000,95.000000,72.238579,95.000000,75.000000 C 95.000000,75.000000,95.000000,75.000000,95.000000,75.000000z"/> 
<path class="st2" d = "M 70.000000,10.000000 C 70.000000,10.000000,70.000000,10.000000,70.000000,10.000000 C 75.522850,10.000000,80.000000,14.477152,80.000000,20.000000 C 80.000000,20.000000,80.000000,20.000000,80.000000,20.000000 C 80.000000,25.522848,75.522850,30.000000,70.000000,30.000000 C 70.000000,30.000000,70.000000,30.000000,70.000000,30.000000 C 64.477150,30.000000,60.000000,25.522848,60.000000,20.000000 C 60.000000,20.000000,60.000000,20.000000,60.000000,20.000000 C 60.000000,14.477152,64.477150,10.000000,70.000000,10.000000 C 70.000000,10.000000,70.000000,10.000000,70.000000,10.000000z"/> 
<path class="st1" d = "M 10.000000,10.000000 C 16.666666,10.000000,23.333334,10.000000,30.000000,10.000000 C 30.000000,16.666666,30.000000,23.333334,30.000000,30.000000 C 23.333334,30.000000,16.666666,30.000000,10.000000,30.000000 C 10.000000,23.333334,10.000000,16.666666,10.000000,10.000000z"/> 
<path class="st1" d = "M 10.000000,10.000000 C 16.666666,10.000000,23.333334,10.000000,30.000000,10.000000 C 30.000000,16.666666,30.000000,23.333334,30.000000,30.000000 C 23.333334,30.000000,16.666666,30.000000,10.000000,30.000000 C 10.000000,23.333334,10.000000,16.666666,10.000000,10.000000z"/> 
<path class="st1" d = "M 10.000000,10.000000 C 16.666666,10.000000,23.333334,10.000000,30.000000,10.000000 C 30.000000,16.666666,30.000000,23.333334,30.000000,30.000000 C 23.333334,30.000000,16.666666,30.000000,10.000000,30.000000 C 10.000000,23.333334,10.000000,16.666666,10.000000,10.000000z"/> 
<path class="st4" d = "M 95.000000,75.000000 C 95.000000,77.761421,86.045692,80.000000,75.000000,80.000000 C 63.954304,80.000000,55.000000,77.761421,55.000000,75.000000 C 55.000000,72.238579,63.954304,70.000000,75.000000,70.000000 C 86.045692,70.000000,95.000000,72.238579,95.000000,75.000000 C 95.000000,75.000000,95.000000,75.000000,95.000000,75.000000z"/> 
<path class="st4" d = "M 95.000000,75.000000 C 95.000000,77.761421,86.045692,80.000000,75.000000,80.000000 C 63.954304,80.000000,55.000000,77.761421,55.000000,75.000000 C 55.000000,72.238579,63.954304,70.000000,75.000000,70.000000 C 86.045692,70.000000,95.000000,72.238579,95.000000,75.000000 C 95.000000,75.000000,95.000000,75.000000,95.000000,75.000000z"/> 
<path class="st1" d = "M 10.000000,10.000000 C 16.666666,10.000000,23.333334,10.000000,30.000000,10.000000 C 30.000000,16.666666,30.000000,23.333334,30.000000,30.000000 C 23.333334,30.000000,16.666666,30.000000,10.000000,30.000000 C 10.000000,23.333334,10.000000,16.666666,10.000000,10.000000z"/> 
<path class="st2" d = "M 70.000000,10.000000 C 70.000000,10.000000,70.000000,10.000000,70.000000,10.000000 C 75.522850,10.000000,80.000000,14.477152,80.000000,20.000000 C 80.000000,20.000000,80.000000,20.000000,80.000000,20.000000 C 80.000000,25.522848,75.522850,30.000000,70.000000,30.000000 C 70.000000,30.000000,70.000000,30.000000,70.000000,30.000000 C 64.477150,30.000000,60.000000,25.522848,60.000000,20.000000 C 60.000000,20.000000,60.000000,20.000000,60.000000,20.000000 C 60.000000,14.477152,64.477150,10.000000,70.000000,10.000000 C 70.000000,10.000000,70.000000,10.000000,70.000000,10.000000z"/> 
<path class="st4" d = "M 95.000000,75.000000 C 95.000000,77.761421,86.045692,80.000000,75.000000,80.000000 C 63.954304,80.000000,55.000000,77.761421,55.000000,75.000000 C 55.000000,72.238579,63.954304,70.000000,75.000000,70.000000 C 86.045692,70.000000,95.000000,72.238579,95.000000,75.000000 C 95.000000,75.000000,95.000000,75.000000,95.000000,75.000000z"/> 
<path class="st2" d = "M 70.000000,10.000000 C 70.000000,10.000000,70.000000,10.000000,70.000000,10.000000 C 75.522850,10.000000,80.000000,14.477152,80.000000,20.000000 C 80.000000,20.000000,80.000000,20.000000,80.000000,20.000000 C 80.000000,25.522848,75.522850,30.000000,70.000000,30.000000 C 70.000000,30.000000,70.000000,30.000000,70.000000,30.000000 C 64.477150,30.000000,60.000000,25.522848,60.000000,20.000000 C 60.000000,20.000000,60.000000,20.000000,60.000000,20.000000 C 60.000000,14.477152,64.477150,10.000000,70.000000,10.000000 C 70.000000,10.000000,70.000000,10.000000,70.000000,10.000000z"/> 
<path class="st1" d = "M 10.000000,10.000000 C 16.666666,10.000000,23.333334,10.000000,30.000000,10.000000 C 30.000000,16.666666,30.000000,23.333334,30.000000,30.000000 C 23.333334,30.000000,16.666666,30.000000,10.000000,30.000000 C 10.000000,23.333334,10.000000,16.666666,10.000000,10.000000z"/> 
<path class="st2" d = "M 70.000000,10.000000 C 70.000000,10.000000,70.000000,10.000000,70.000000,10.000000 C 75.522850,10.000000,80.000000,14.477152,80.000000,20.000000 C 80.000000,20.000000,80.000000,20.000000,80.000000,20.000000 C 80.000000,25.522848,75.522850,30.000000,70.000000,30.000000 C 70.000000,30.000000,70.000000,30.000000,70.000000,30.000000 C 64.477150,30.000000,60.000000,25.522848,60.000000,20.000000 C 60.000000,20.000000,60.000000,20.000000,60.000000,20.000000 C 60.000000,14.477152,64.477150,10.000000,70.000000,10.000000 C 70.000000,10.000000,70.000000,10.000000,70.000000,10.000000z"/> 
<path class="st4" d = "M 95.000000,75.000000 C 95.000000,77.761421,86.045692,80.000000,75.000000,80.000000 C 63.954304,80.000000,55.000000,77.761421,55.000000,75.000000 C 55.000000,72.238579,63.954304,70.000000,75.000000,70.000000 C 86.045692,70.000000,95.000000,72.238579,95.000000,75.000000 C 95.000000,75.000000,95.000000,75.000000,95.000000,75.000000z"/> 
<path class="st4" d = "M 95.000000,75.000000 C 95.000000,77.761421,86.045692,80.000000,75.000000,80.000000 C 63.954304,80.000000,55.000000,77.761421,55.000000,75.000000 C 55.000000,72.238579,63.954304,70.000000,75.000000,70.000000 C 86.045692,70.000000,95.000000,72.238579,95.000000,75.000000 C 95.000000,75.000000,95.000000,75.000000,95.000000,75.000000z"/> 
<path class="st1" d = "M 10.000000,10.000000 C 16.666666,10.000000,23.333334,10.000000,30.000000,10.000000 C 30.000000,16.666666,30.000000,23.333334,30.000000,30.000000 C 23.333334,30.000000,16.666666,30.000000,10.000000,30.000000 C 10.000000,23.333334,10.000000,16.666666,10.000000,10.000000z"/> 
<path class="st2" d = "M 70.000000,10.000000 C 70.000000,10.000000,70.000000,10.000000,70.000000,10.000000 C 75.522850,10.000000,80.000000,14.477152,80.000000,20.000000 C 80.000000,20.000000,80.000000,20.000000,80.000000,20.000000 C 80.000000,25.522848,75.522850,30.000000,70.000000,30.000000 C 70.000000,30.000000,70.000000,30.000000,70.000000,30.000000 C 64.477150,30.000000,60.000000,25.522848,60.000000,20.000000 C 60.000000,20.000000,60.000000,20.000000,60.000000,20.000000 C 60.000000,14.477152,64.477150,10.000000,70.000000,10.000000 C 70.000000,10.000000,70.000000,10.000000,70.000000,10.000000z"/> 
<path class="st1" d = "M 10.000000,10.000000 C 16.666666,10.000000,23.333334,10.000000,30.000000,10.000000 C 30.000000,16.666666,30.000000,23.333334,30.000000,30.000000 C 23.333334,30.000000,16.666666,30.000000,10.000000,30.000000 C 10.000000,23.333334,10.000000,16.666666,10.000000,10.000000z"/> 
<path class="st4" d = "M 95.000000,75.000000 C 95.000000,77.761421,86.045692,80.000000,75.000000,80.000000 C 63.954304,80.000000,55.000000,77.761421,55.000000,75.000000 C 55.000000,72.238579,63.954304,70.000000,75.000000,70.000000 C 86.045692,70.000000,95.000000,72.238579,95.000000,75.000000 C 95.000000,75.000000,95.000000,75.000000,95.000000,75.000000z"/> 
<path class="st1" d = "M 10.000000,10.000000 C 16.666666,10.000000,23.333334,10.000000,30.000000,10.000000 C 30.000000,16.666666,30.000000,23.333334,30.000000,30.000000 C 23.333334,30.000000,16.666666,30.000000,10.000000,30.000000 C 10.000000,23.333334,10.000000,16.666666,10.000000,10.000000z"/> 
<path class="st2" d = "M 70.000000,10.000000 C 70.000000,10.000000,70.000000,10.000000,70.000000,10.000000 C 75.522850,10.000000,80.000000,14.477152,80.000000,20.000000 C 80.000000,20.000000,80.000000,20.000000,80.000000,20.000000 C 80.000000,25.522848,75.522850,30.000000,70.000000,30.000000 C 70.000000,30.000000,70.000000,30.000000,70.000000,30.000000 C 64.477150,30.000000,60.000000,25.522848,60.000000,20.000000 C 60.000000,20.000000,60.000000,20.000000,60.000000,20.000000 C 60.000000,14.477152,64.477150,10.000000,70.000000,10.000000 C 70.000000,10.000000,70.000000,10.000000,70.000000,10.000000z"/> 
<path class="st4" d = "M 95.000000,75.000000 C 95.000000,77.761421,86.045692,80.000000,75.000000,80.000000 C 63.954304,80.000000,55.000000,77.761421,55.000000,75.000000 C 55.000000,72.238579,63.954304,70.000000,75.000000,70.000000 C 86.045692,70.000000,95.000000,72.238579,95.000000,75.000000 C 95.000000,75.000000,95.000000,75.000000,95.000000,75.000000z"/> 
<path class="st4" d = "M 95.000000,75.000000 C 95.000000,77.761421,86.045692,80.000000,75.000000,80.000000 C 63.954304,80.000000,55.000000,77.761421,55.000000,75.000000 C 55.000000,72.238579,63.954304,70.000000,75.000000,70.000000 C 86.045692,70.000000,95.000000,72.238579,95.000000,75.000000 C 95.000000,75.000000,95.000000,75.000000,95.000000,75.000000z"/> 
<path class="st1" d = "M 10.000000,10.000000 C 16.666666,10.000000,23.333334,10.000000,30.000000,10.000000 C 30.000000,16.666666,30.000000,23.333334,30.000000,30.000000 C 23.333334,30.000000,16.666666,30.000000,10.000000,30.000000 C 10.000000,23.333334,10.000000,16.666666,10.000000,10.000000z"/> 
<path class="st1" d = "M 10.000000,10.000000 C 16.666666,10.000000,23.333334,10.000000,30.000000,10.000000 C 30.000000,16.666666,30.000000,23.333334,30.000000,30.000000 C 23.333334,30.000000,16.666666,30.000000,10.000000,30.000000 C 10.000000,23.333334,10.000000,16.666666,10.000000,10.000000z"/> 
<path class="st1" d = "M 10.000000,10.000000 C 16.666666,10.000000,23.333334,10.000000,30.000000,10.000000 C 30.000000,16.666666,30.000000,23.333334,30.000000,30.000000 C 23.333334,30.000000,16.666666,30.000000,10.000000,30.000000 C 10.000000,23.333334,10.000000,16.666666,10.000000,10.000000z"/> 
<path class="st4" d = "M 95.000000,75.000000 C 95.000000,77.761421,86.045692,80.000000,75.000000,80.000000 C 63.954304,80.000000,55.000000,77.761421,55.000000,75.000000 C 55.000000,72.238579,63.954304,70.000000,75.000000,70.000000 C 86.045692,70.000000,95.000000,72.238579,95.000000,75.000000 C 95.000000,75.000000,95.000000,75.000000,95.000000,75.000000z"/> 
<path class="st2" d = "M 70.000000,10.000000 C 70.000000,10.000000,70.000000,10.000000,70.000000,10.000000 C 75.522850,10.000000,80.000000,14.477152,80.000000,20.000000 C 80.000000,20.000000,80.000000,20.000000,80.000000,20.000000 C 80.000000,25.522848,75.522850,30.000000,70.000000,30.000000 C 70.000000,30.000000,70.000000,30.000000,70.000000,30.000000 C 64.477150,30.000000,60.000000,25.522848,60.000000,20.000000 C 60.000000,20.000000,60.000000,20.000000,60.000000,20.000000 C 60.000000,14.477152,64.477150,10.000000,70.000000,10.000000 C 70.000000,10.000000,70.000000,10.000000,70.000000,10.000000z"/> 
<path class="st1" d = "M 10.000000,10.000000 C 16.666666,10.000000,23.333334,10.000000,30.000000,10.000000 C 30.000000,16.666666,30.000000,23.333334,30.000000,30.000000 C 23.333334,30.000000,16.666666,30.000000,10.000000,30.000000 C 10.000000,23.333334,10.000000,16.666666,10.000000,10.000000z"/> 
<path class="st1" d = "M 10.000000,10.000000 C 16.666666,10.000000,23.333334,10.000000,30.000000,10.000000 C 30.000000,16.666666,30.000000,23.333334,30.000000,30.000000 C 23.333334,30.000000,16.666666,30.000000,10.000000,30.000000 C 10.000000,23.333334,10.000000,16.666666,10.000000,10.000000z"/> 
<path class="st1" d = "M 10.000000,10.000000 C 16.666666,10.000000,23.333334,10.000000,30.000000,10.000000 C 30.000000,16.666666,30.000000,23.333334,30.000000,30.000000 C 23.333334,30.000000,16.666666,30.000000,10.000000,30.000000 C 10.000000,23.333334,10.000000,16.666666,10.000000,10.000000z"/> 
<path class="st1" d = "M 10.000000,10.000000 C 16.666666,10.000000,23.333334,10.000000,30.000000,10.000000 C 30.000000,16.666666,30.000000,23.333334,30.000000,30.000000 C 23.333334,30.000000,16.666666,30.000000,10.000000,30.000000 C 10.000000,23.333334,10.000000,16.666666,10.000000,10.000000z"/> 
</svg>
