<?xml version="1.0" standalone="no"?> 
<svg width="150pt" height= "150pt" version="1.1" xmlns="http://www.w3.org/2000/svg">
<style type = "text/css">
.st1{fill:#ff0000;stroke:#000000;stroke-miterlimit:5.000000;}
.st2{fill:#ff0000;stroke:#000000;stroke-miterlimit:5.000000;}
.st3{fill:#008000;stroke:#008000;stroke-miterlimit:5.000000;}
.st4{fill:#0000ff;stroke:#0000ff;stroke-miterlimit:5.000000;}
</style> 
<path class="st1" d = "M 10.000000,10.000000 C 16.666666,10.000000,23.333334,10.000000,30.000000,10.000000 C 30.000000,16.666666,30.000000,23.333334,30.000000,30.000000 C 23.333334,30.000000,16.666666,30.000000,10.000000,30.000000 C 10.000000,23.333334,10.000000,16.666666,10.000000,10.000000z"/> 
<path class="st2" d = "M 164.000000,730.000000 C 164.000000,730.000000,164.000000,730.000000,164.000000,730.000000 C 169.522858,730.000000,174.000000,734.477173,174.000000,740.000000 C 174.000000,740.000000,174.000000,740.000000,174.000000,740.000000 C 174.000000,745.522827,169.522858,750.000000,164.000000,750.000000 C 164.000000,750.000000,164.000000,750.000000,164.000000,750.000000 C 158.477142,750.000000,154.000000,745.522827,154.000000,740.000000 C 154.000000,740.000000,154.000000,740.000000,154.000000,740.000000 C 154.000000,734.477173,158.477142,730.000000,164.000000,730.000000 C 164.000000,730.000000,164.000000,730.000000,164.000000,730.000000z"/> 
<path class="st3" d = "M 55.000000,29.000000 C 55.000000,40.045692,46.045696,49.000000,35.000000,49.000000 C 23.954304,49.000000,15.000000,40.045692,15.000000,29.000000 C 15.000000,17.954304,23.954304,9.000000,35.000000,9.000000 C 46.045696,9.000000,55.000000,17.954304,55.000000,29.000000 C 55.000000,29.000000,55.000000,29.000000,55.000000,29.000000z"/> 
<path class="st2" d = "M 164.000000,730.000000 C 164.000000,730.000000,164.000000,730.000000,164.000000,730.000000 C 169.522858,730.000000,174.000000,734.477173,174.000000,740.000000 C 174.000000,740.000000,174.000000,740.000000,174.000000,740.000000 C 174.000000,745.522827,169.522858,750.000000,164.000000,750.000000 C 164.000000,750.000000,164.000000,750.000000,164.000000,750.000000 C 158.477142,750.000000,154.000000,745.522827,154.000000,740.000000 C 154.000000,740.000000,154.000000,740.000000,154.000000,740.000000 C 154.000000,734.477173,158.477142,730.000000,164.000000,730.000000 C 164.000000,730.000000,164.000000,730.000000,164.000000,730.000000z"/> 
<path class="st1" d = "M 10.000000,10.000000 C 16.666666,10.000000,23.333334,10.000000,30.000000,10.000000 C 30.000000,16.666666,30.000000,23.333334,30.000000,30.000000 C 23.333334,30.000000,16.666666,30.000000,10.000000,30.000000 C 10.000000,23.333334,10.000000,16.666666,10.000000,10.000000z"/> 
<path class="st1" d = "M 10.000000,10.000000 C 16.666666,10.000000,23.333334,10.000000,30.000000,10.000000 C 30.000000,16.666666,30.000000,23.333334,30.000000,30.000000 C 23.333334,30.000000,16.666666,30.000000,10.000000,30.000000 C 10.000000,23.333334,10.000000,16.666666,10.000000,10.000000z"/> 
<path class="st1" d = "M 10.000000,10.000000 C 16.666666,10.000000,23.333334,10.000000,30.000000,10.000000 C 30.000000,16.666666,30.000000,23.333334,30.000000,30.000000 C 23.333334,30.000000,16.666666,30.000000,10.000000,30.000000 C 10.000000,23.333334,10.000000,16.666666,10.000000,10.000000z"/> 
<path class="st1" d = "M 10.000000,10.000000 C 16.666666,10.000000,23.333334,10.000000,30.000000,10.000000 C 30.000000,16.666666,30.000000,23.333334,30.000000,30.000000 C 23.333334,30.000000,16.666666,30.000000,10.000000,30.000000 C 10.000000,23.333334,10.000000,16.666666,10.000000,10.000000z"/> 
<path class="st1" d = "M 10.000000,10.000000 C 16.666666,10.000000,23.333334,10.000000,30.000000,10.000000 C 30.000000,16.666666,30.000000,23.333334,30.000000,30.000000 C 23.333334,30.000000,16.666666,30.000000,10.000000,30.000000 C 10.000000,23.333334,10.000000,16.666666,10.000000,10.000000z"/> 
<path class="st2" d = "M 164.000000,730.000000 C 164.000000,730.000000,164.000000,730.000000,164.000000,730.000000 C 169.522858,730.000000,174.000000,734.477173,174.000000,740.000000 C 174.000000,740.000000,174.000000,740.000000,174.000000,740.000000 C 174.000000,745.522827,169.522858,750.000000,164.000000,750.000000 C 164.000000,750.000000,164.000000,750.000000,164.000000,750.000000 C 158.477142,750.000000,154.000000,745.522827,154.000000,740.000000 C 154.000000,740.000000,154.000000,740.000000,154.000000,740.000000 C 154.000000,734.477173,158.477142,730.000000,164.000000,730.000000 C 164.000000,730.000000,164.000000,730.000000,164.000000,730.000000z"/> 
<path class="st2" d = "M 164.000000,730.000000 C 164.000000,730.000000,164.000000,730.000000,164.000000,730.000000 C 169.522858,730.000000,174.000000,734.477173,174.000000,740.000000 C 174.000000,740.000000,174.000000,740.000000,174.000000,740.000000 C 174.000000,745.522827,169.522858,750.000000,164.000000,750.000000 C 164.000000,750.000000,164.000000,750.000000,164.000000,750.000000 C 158.477142,750.000000,154.000000,745.522827,154.000000,740.000000 C 154.000000,740.000000,154.000000,740.000000,154.000000,740.000000 C 154.000000,734.477173,158.477142,730.000000,164.000000,730.000000 C 164.000000,730.000000,164.000000,730.000000,164.000000,730.000000z"/> 
<path class="st2" d = "M 164.000000,730.000000 C 164.000000,730.000000,164.000000,730.000000,164.000000,730.000000 C 169.522858,730.000000,174.000000,734.477173,174.000000,740.000000 C 174.000000,740.000000,174.000000,740.000000,174.000000,740.000000 C 174.000000,745.522827,169.522858,750.000000,164.000000,750.000000 C 164.000000,750.000000,164.000000,750.000000,164.000000,750.000000 C 158.477142,750.000000,154.000000,745.522827,154.000000,740.000000 C 154.000000,740.000000,154.000000,740.000000,154.000000,740.000000 C 154.000000,734.477173,158.477142,730.000000,164.000000,730.000000 C 164.000000,730.000000,164.000000,730.000000,164.000000,730.000000z"/> 
<path class="st4" d = "M 148.000000,-88.000000 C 148.000000,-85.238586,139.045685,-83.000000,128.000000,-83.000000 C 116.954300,-83.000000,108.000000,-85.238586,108.000000,-88.000000 C 108.000000,-90.761414,116.954300,-93.000000,128.000000,-93.000000 C 139.045685,-93.000000,148.000000,-90.761414,148.000000,-88.000000 C 148.000000,-88.000000,148.000000,-88.000000,148.000000,-88.000000z"/> 
<path class="st4" d = "M 148.000000,-88.000000 C 148.000000,-85.238586,139.045685,-83.000000,128.000000,-83.000000 C 116.954300,-83.000000,108.000000,-85.238586,108.000000,-88.000000 C 108.000000,-90.761414,116.954300,-93.000000,128.000000,-93.000000 C 139.045685,-93.000000,148.000000,-90.761414,148.000000,-88.000000 C 148.000000,-88.000000,148.000000,-88.000000,148.000000,-88.000000z"/> 
<path class="st4" d = "M 148.000000,-88.000000 C 148.000000,-85.238586,139.045685,-83.000000,128.000000,-83.000000 C 116.954300,-83.000000,108.000000,-85.238586,108.000000,-88.000000 C 108.000000,-90.761414,116.954300,-93.000000,128.000000,-93.000000 C 139.045685,-93.000000,148.000000,-90.761414,148.000000,-88.000000 C 148.000000,-88.000000,148.000000,-88.000000,148.000000,-88.000000z"/> 
<path class="st4" d = "M 148.000000,-88.000000 C 148.000000,-85.238586,139.045685,-83.000000,128.000000,-83.000000 C 116.954300,-83.000000,108.000000,-85.238586,108.000000,-88.000000 C 108.000000,-90.761414,116.954300,-93.000000,128.000000,-93.000000 C 139.045685,-93.000000,148.000000,-90.761414,148.000000,-88.000000 C 148.000000,-88.000000,148.000000,-88.000000,148.000000,-88.000000z"/> 
<path class="st2" d = "M 164.000000,730.000000 C 164.000000,730.000000,164.000000,730.000000,164.000000,730.000000 C 169.522858,730.000000,174.000000,734.477173,174.000000,740.000000 C 174.000000,740.000000,174.000000,740.000000,174.000000,740.000000 C 174.000000,745.522827,169.522858,750.000000,164.000000,750.000000 C 164.000000,750.000000,164.000000,750.000000,164.000000,750.000000 C 158.477142,750.000000,154.000000,745.522827,154.000000,740.000000 C 154.000000,740.000000,154.000000,740.000000,154.000000,740.000000 C 154.000000,734.477173,158.477142,730.000000,164.000000,730.000000 C 164.000000,730.000000,164.000000,730.000000,164.000000,730.000000z"/> 
<path class="st1" d = "M 10.000000,10.000000 C 16.666666,10.000000,23.333334,10.000000,30.000000,10.000000 C 30.000000,16.666666,30.000000,23.333334,30.000000,30.000000 C 23.333334,30.000000,16.666666,30.000000,10.000000,30.000000 C 10.000000,23.333334,10.000000,16.666666,10.000000,10.000000z"/> 
<path class="st1" d = "M 10.000000,10.000000 C 16.666666,10.000000,23.333334,10.000000,30.000000,10.000000 C 30.000000,16.666666,30.000000,23.333334,30.000000,30.000000 C 23.333334,30.000000,16.666666,30.000000,10.000000,30.000000 C 10.000000,23.333334,10.000000,16.666666,10.000000,10.000000z"/> 
<path class="st1" d = "M 10.000000,10.000000 C 16.666666,10.000000,23.333334,10.000000,30.000000,10.000000 C 30.000000,16.666666,30.000000,23.333334,30.000000,30.000000 C 23.333334,30.000000,16.666666,30.000000,10.000000,30.000000 C 10.000000,23.333334,10.000000,16.666666,10.000000,10.000000z"/> 
<path class="st4" d = "M 148.000000,-88.000000 C 148.000000,-85.238586,139.045685,-83.000000,128.000000,-83.000000 C 116.954300,-83.000000,108.000000,-85.238586,108.000000,-88.000000 C 108.000000,-90.761414,116.954300,-93.000000,128.000000,-93.000000 C 139.045685,-93.000000,148.000000,-90.761414,148.000000,-88.000000 C 148.000000,-88.000000,148.000000,-88.000000,148.000000,-88.000000z"/> 
<path class="st4" d = "M 148.000000,-88.000000 C 148.000000,-85.238586,139.045685,-83.000000,128.000000,-83.000000 C 116.954300,-83.000000,108.000000,-85.238586,108.000000,-88.000000 C 108.000000,-90.761414,116.954300,-93.000000,128.000000,-93.000000 C 139.045685,-93.000000,148.000000,-90.761414,148.000000,-88.000000 C 148.000000,-88.000000,148.000000,-88.000000,148.000000,-88.000000z"/> 
<path class="st1" d = "M 10.000000,10.000000 C 16.666666,10.000000,23.333334,10.000000,30.000000,10.000000 C 30.000000,16.666666,30.000000,23.333334,30.000000,30.000000 C 23.333334,30.000000,16.666666,30.000000,10.000000,30.000000 C 10.000000,23.333334,10.000000,16.666666,10.000000,10.000000z"/> 
<path class="st2" d = "M 164.000000,730.000000 C 164.000000,730.000000,164.000000,730.000000,164.000000,730.000000 C 169.522858,730.000000,174.000000,734.477173,174.000000,740.000000 C 174.000000,740.000000,174.000000,740.000000,174.000000,740.000000 C 174.000000,745.522827,169.522858,750.000000,164.000000,750.000000 C 164.000000,750.000000,164.000000,750.000000,164.000000,750.000000 C 158.477142,750.000000,154.000000,745.522827,154.000000,740.000000 C 154.000000,740.000000,154.000000,740.000000,154.000000,740.000000 C 154.000000,734.477173,158.477142,730.000000,164.000000,730.000000 C 164.000000,730.000000,164.000000,730.000000,164.000000,730.000000z"/> 
<path class="st4" d = "M 148.000000,-88.000000 C 148.000000,-85.238586,139.045685,-83.000000,128.000000,-83.000000 C 116.954300,-83.000000,108.000000,-85.238586,108.000000,-88.000000 C 108.000000,-90.761414,116.954300,-93.000000,128.000000,-93.000000 C 139.045685,-93.000000,148.000000,-90.761414,148.000000,-88.000000 C 148.000000,-88.000000,148.000000,-88.000000,148.000000,-88.000000z"/> 
<path class="st2" d = "M 164.000000,730.000000 C 164.000000,730.000000,164.000000,730.000000,164.000000,730.000000 C 169.522858,730.000000,174.000000,734.477173,174.000000,740.000000 C 174.000000,740.000000,174.000000,740.000000,174.000000,740.000000 C 174.000000,745.522827,169.522858,750.000000,164.000000,750.000000 C 164.000000,750.000000,164.000000,750.000000,164.000000,750.000000 C 158.477142,750.000000,154.000000,745.522827,154.000000,740.000000 C 154.000000,740.000000,154.000000,740.000000,154.000000,740.000000 C 154.000000,734.477173,158.477142,730.000000,164.000000,730.000000 C 164.000000,730.000000,164.000000,730.000000,164.000000,730.000000z"/> 
<path class="st1" d = "M 10.000000,10.000000 C 16.666666,10.000000,23.333334,10.000000,30.000000,10.000000 C 30.000000,16.666666,30.000000,23.333334,30.000000,30.000000 C 23.333334,30.000000,16.666666,30.000000,10.000000,30.000000 C 10.000000,23.333334,10.000000,16.666666,10.000000,10.000000z"/> 
<path class="st2" d = "M 164.000000,730.000000 C 164.000000,730.000000,164.000000,730.000000,164.000000,730.000000 C 169.522858,730.000000,174.000000,734.477173,174.000000,740.000000 C 174.000000,740.000000,174.000000,740.000000,174.000000,740.000000 C 174.000000,745.522827,169.522858,750.000000,164.000000,750.000000 C 164.000000,750.000000,164.000000,750.000000,164.000000,750.000000 C 158.477142,750.000000,154.000000,745.522827,154.000000,740.000000 C 154.000000,740.000000,154.000000,740.000000,154.000000,740.000000 C 154.000000,734.477173,158.477142,730.000000,164.000000,730.000000 C 164.000000,730.000000,164.000000,730.000000,164.000000,730.000000z"/> 
<path class="st4" d = "M 148.000000,-88.000000 C 148.000000,-85.238586,139.045685,-83.000000,128.000000,-83.000000 C 116.954300,-83.000000,108.000000,-85.238586,108.000000,-88.000000 C 108.000000,-90.761414,116.954300,-93.000000,128.000000,-93.000000 C 139.045685,-93.000000,148.000000,-90.761414,148.000000,-88.000000 C 148.000000,-88.000000,148.000000,-88.000000,148.000000,-88.000000z"/> 
<path class="st4" d = "M 148.000000,-88.000000 C 148.000000,-85.238586,139.045685,-83.000000,128.000000,-83.000000 C 116.954300,-83.000000,108.000000,-85.238586,108.000000,-88.000000 C 108.000000,-90.761414,116.954300,-93.000000,128.000000,-93.000000 C 139.045685,-93.000000,148.000000,-90.761414,148.000000,-88.000000 C 148.000000,-88.000000,148.000000,-88.000000,148.000000,-88.000000z"/> 
<path class="st1" d = "M 10.000000,10.000000 C 16.666666,10.000000,23.333334,10.000000,30.000000,10.000000 C 30.000000,16.666666,30.000000,23.333334,30.000000,30.000000 C 23.333334,30.000000,16.666666,30.000000,10.000000,30.000000 C 10.000000,23.333334,10.000000,16.666666,10.000000,10.000000z"/> 
<path class="st2" d = "M 164.000000,730.000000 C 164.000000,730.000000,164.000000,730.000000,164.000000,730.000000 C 169.522858,730.000000,174.000000,734.477173,174.000000,740.000000 C 174.000000,740.000000,174.000000,740.000000,174.000000,740.000000 C 174.000000,745.522827,169.522858,750.000000,164.000000,750.000000 C 164.000000,750.000000,164.000000,750.000000,164.000000,750.000000 C 158.477142,750.000000,154.000000,745.522827,154.000000,740.000000 C 154.000000,740.000000,154.000000,740.000000,154.000000,740.000000 C 154.000000,734.477173,158.477142,730.000000,164.000000,730.000000 C 164.000000,730.000000,164.000000,730.000000,164.000000,730.000000z"/> 
<path class="st1" d = "M 10.000000,10.000000 C 16.666666,10.000000,23.333334,10.000000,30.000000,10.000000 C 30.000000,16.666666,30.000000,23.333334,30.000000,30.000000 C 23.333334,30.000000,16.666666,30.000000,10.000000,30.000000 C 10.000000,23.333334,10.000000,16.666666,10.000000,10.000000z"/> 
<path class="st4" d = "M 148.000000,-88.000000 C 148.000000,-85.238586,139.045685,-83.000000,128.000000,-83.000000 C 116.954300,-83.000000,108.000000,-85.238586,108.000000,-88.000000 C 108.000000,-90.761414,116.954300,-93.000000,128.000000,-93.000000 C 139.045685,-93.000000,148.000000,-90.761414,148.000000,-88.000000 C 148.000000,-88.000000,148.000000,-88.000000,148.000000,-88.000000z"/> 
<path class="st1" d = "M 10.000000,10.000000 C 16.666666,10.000000,23.333334,10.000000,30.000000,10.000000 C 30.000000,16.666666,30.000000,23.333334,30.000000,30.000000 C 23.333334,30.000000,16.666666,30.000000,10.000000,30.000000 C 10.000000,23.333334,10.000000,16.666666,10.000000,10.000000z"/> 
<path class="st2" d = "M 164.000000,730.000000 C 164.000000,730.000000,164.000000,730.000000,164.000000,730.000000 C 169.522858,730.000000,174.000000,734.477173,174.000000,740.000000 C 174.000000,740.000000,174.000000,740.000000,174.000000,740.000000 C 174.000000,745.522827,169.522858,750.000000,164.000000,750.000000 C 164.000000,750.000000,164.000000,750.000000,164.000000,750.000000 C 158.477142,750.000000,154.000000,745.522827,154.000000,740.000000 C 154.000000,740.000000,154.000000,740.000000,154.000000,740.000000 C 154.000000,734.477173,158.477142,730.000000,164.000000,730.000000 C 164.000000,730.000000,164.000000,730.000000,164.000000,730.000000z"/> 
<path class="st4" d = "M 148.000000,-88.000000 C 148.000000,-85.238586,139.045685,-83.000000,128.000000,-83.000000 C 116.954300,-83.000000,108.000000,-85.238586,108.000000,-88.000000 C 108.000000,-90.761414,116.954300,-93.000000,128.000000,-93.000000 C 139.045685,-93.000000,148.000000,-90.761414,148.000000,-88.000000 C 148.000000,-88.000000,148.000000,-88.000000,148.000000,-88.000000z"/> 
<path class="st4" d = "M 148.000000,-88.000000 C 148.000000,-85.238586,139.045685,-83.000000,128.000000,-83.000000 C 116.954300,-83.000000,108.000000,-85.238586,108.000000,-88.000000 C 108.000000,-90.761414,116.954300,-93.000000,128.000000,-93.000000 C 139.045685,-93.000000,148.000000,-90.761414,148.000000,-88.000000 C 148.000000,-88.000000,148.000000,-88.000000,148.000000,-88.000000z"/> 
<path class="st1" d = "M 10.000000,10.000000 C 16.666666,10.000000,23.333334,10.000000,30.000000,10.000000 C 30.000000,16.666666,30.000000,23.333334,30.000000,30.000000 C 23.333334,30.000000,16.666666,30.000000,10.000000,30.000000 C 10.000000,23.333334,10.000000,16.666666,10.000000,10.000000z"/> 
<path class="st1" d = "M 10.000000,10.000000 C 16.666666,10.000000,23.333334,10.000000,30.000000,10.000000 C 30.000000,16.666666,30.000000,23.333334,30.000000,30.000000 C 23.333334,30.000000,16.666666,30.000000,10.000000,30.000000 C 10.000000,23.333334,10.000000,16.666666,10.000000,10.000000z"/> 
<path class="st1" d = "M 10.000000,10.000000 C 16.666666,10.000000,23.333334,10.000000,30.000000,10.000000 C 30.000000,16.666666,30.000000,23.333334,30.000000,30.000000 C 23.333334,30.000000,16.666666,30.000000,10.000000,30.000000 C 10.000000,23.333334,10.000000,16.666666,10.000000,10.000000z"/> 
<path class="st4" d = "M 148.000000,-88.000000 C 148.000000,-85.238586,139.045685,-83.000000,128.000000,-83.000000 C 116.954300,-83.000000,108.000000,-85.238586,108.000000,-88.000000 C 108.000000,-90.761414,116.954300,-93.000000,128.000000,-93.000000 C 139.045685,-93.000000,148.000000,-90.761414,148.000000,-88.000000 C 148.000000,-88.000000,148.000000,-88.000000,148.000000,-88.000000z"/> 
<path class="st2" d = "M 164.000000,730.000000 C 164.000000,730.000000,164.000000,730.000000,164.000000,730.000000 C 169.522858,730.000000,174.000000,734.477173,174.000000,740.000000 C 174.000000,740.000000,174.000000,740.000000,174.000000,740.000000 C 174.000000,745.522827,169.522858,750.000000,164.000000,750.000000 C 164.000000,750.000000,164.000000,750.000000,164.000000,750.000000 C 158.477142,750.000000,154.000000,745.522827,154.000000,740.000000 C 154.000000,740.000000,154.000000,740.000000,154.000000,740.000000 C 154.000000,734.477173,158.477142,730.000000,164.000000,730.000000 C 164.000000,730.000000,164.000000,730.000000,164.000000,730.000000z"/> 
<path class="st1" d = "M 10.000000,10.000000 C 16.666666,10.000000,23.333334,10.000000,30.000000,10.000000 C 30.000000,16.666666,30.000000,23.333334,30.000000,30.000000 C 23.333334,30.000000,16.666666,30.000000,10.000000,30.000000 C 10.000000,23.333334,10.000000,16.666666,10.000000,10.000000z"/> 
<path class="st1" d = "M 10.000000,10.000000 C 16.666666,10.000000,23.333334,10.000000,30.000000,10.000000 C 30.000000,16.666666,30.000000,23.333334,30.000000,30.000000 C 23.333334,30.000000,16.666666,30.000000,10.000000,30.000000 C 10.000000,23.333334,10.000000,16.666666,10.000000,10.000000z"/> 
<path class="st1" d = "M 10.000000,10.000000 C 16.666666,10.000000,23.333334,10.000000,30.000000,10.000000 C 30.000000,16.666666,30.000000,23.333334,30.000000,30.000000 C 23.333334,30.000000,16.666666,30.000000,10.000000,30.000000 C 10.000000,23.333334,10.000000,16.666666,10.000000,10.000000z"/> 
<path class="st1" d = "M 10.000000,10.000000 C 16.666666,10.000000,23.333334,10.000000,30.000000,10.000000 C 30.000000,16.666666,30.000000,23.333334,30.000000,30.000000 C 23.333334,30.000000,16.666666,30.000000,10.000000,30.000000 C 10.000000,23.333334,10.000000,16.666666,10.000000,10.000000z"/> 
</svg>
